<?xml version="1.0" standalone="no"?>
<!DOCTYPE svg PUBLIC "-//W3C//DTD SVG 20010904//EN"
 "http://www.w3.org/TR/2001/REC-SVG-20010904/DTD/svg10.dtd">
<svg version="1.0" xmlns="http://www.w3.org/2000/svg"
 width="1280.000000pt" height="720.000000pt" viewBox="0 0 1280.000000 720.000000"
 preserveAspectRatio="xMidYMid meet">

<g transform="translate(0.000000,720.000000) scale(0.100000,-0.100000)"
fill="#000000" stroke="none">
<path d="M9812 4073 c-11 -11 -17 -11 -28 -2 -10 8 -14 8 -14 0 0 -6 -16 -17
-35 -25 -39 -17 -49 -42 -12 -32 12 3 25 6 30 6 4 0 7 7 7 15 0 18 14 19 41 5
15 -9 21 -7 25 5 3 8 12 15 20 15 18 0 18 -9 -1 -31 -15 -15 -14 -17 10 -23
16 -4 25 -13 25 -25 0 -31 11 -51 27 -51 12 0 13 -3 5 -13 -8 -9 -4 -28 16
-70 l27 -57 20 26 c11 15 23 31 27 37 11 18 19 1 13 -25 -5 -18 -18 -29 -46
-38 -36 -12 -38 -15 -24 -30 8 -9 15 -23 15 -31 0 -8 9 -20 21 -27 12 -7 18
-16 15 -19 -3 -3 4 -19 15 -34 11 -16 18 -33 15 -38 -3 -5 1 -23 10 -40 8 -17
13 -35 10 -40 -4 -5 -2 -11 3 -13 6 -1 12 -21 14 -43 3 -27 9 -41 21 -43 16
-4 23 -22 7 -22 -9 0 -2 -52 9 -60 4 -3 10 -15 14 -27 6 -19 4 -23 -14 -23
-12 0 -19 -4 -16 -9 3 -5 14 -7 25 -4 24 6 66 -73 49 -94 -6 -7 -8 -16 -4 -20
3 -3 6 -1 6 5 0 7 5 12 11 12 7 0 9 -10 7 -25 -5 -22 -2 -25 15 -19 18 6 19 3
14 -24 -6 -29 -4 -31 26 -34 l32 -4 -27 -12 c-32 -13 -38 -33 -8 -25 18 5 20
0 20 -38 0 -24 7 -57 15 -73 8 -15 12 -32 9 -37 -3 -6 0 -16 6 -24 7 -8 13
-33 14 -56 2 -30 9 -47 25 -60 25 -20 20 -39 -9 -39 -10 0 -21 -4 -25 -9 -3
-6 8 -8 28 -4 31 5 36 2 48 -26 11 -24 20 -31 41 -31 16 0 28 -4 28 -10 0 -5
-11 -10 -25 -10 -14 0 -25 -4 -25 -10 0 -5 -7 -10 -15 -10 -8 0 -15 -4 -15
-10 0 -5 6 -10 14 -10 8 0 18 5 21 10 11 18 20 11 20 -15 0 -21 -5 -25 -28
-25 -16 0 -26 -4 -22 -10 3 -5 21 -10 40 -10 32 0 34 -2 44 -51 16 -71 26 -88
53 -83 l23 5 -22 -10 c-27 -12 -30 -29 -7 -38 8 -3 13 -12 10 -19 -6 -16 3
-18 23 -5 7 5 11 13 7 19 -3 5 13 10 39 10 39 1 45 -1 45 -19 0 -12 5 -19 13
-16 6 2 11 11 9 21 -2 9 4 16 13 16 8 0 15 -9 15 -19 0 -11 5 -23 10 -26 16
-10 11 -28 -6 -21 -13 5 -14 1 -9 -25 4 -17 8 -39 9 -48 2 -10 14 -17 33 -19
23 -2 36 3 51 23 13 16 26 23 36 19 9 -3 16 -9 16 -13 0 -4 19 -5 42 -2 37 5
43 10 50 40 9 33 10 33 52 29 50 -6 98 -44 75 -59 -8 -5 -17 -9 -21 -9 -5 0
-8 -7 -8 -15 0 -9 -9 -15 -25 -15 -14 0 -25 5 -25 10 0 6 6 10 14 10 8 0 18 5
21 10 11 18 -6 50 -25 50 -12 0 -17 -5 -14 -14 3 -8 -3 -16 -15 -19 -18 -4
-19 -8 -8 -37 11 -30 14 -31 49 -26 47 8 60 -11 15 -19 -56 -11 -82 -3 -81 23
1 24 -10 29 -22 10 -4 -6 5 -22 21 -36 24 -20 35 -23 73 -18 59 8 66 14 48 41
-14 21 -13 24 14 45 16 13 27 27 24 31 -3 5 -1 9 5 9 17 0 41 -12 41 -21 0 -4
-7 -6 -15 -3 -9 4 -15 0 -15 -10 0 -9 -6 -16 -14 -16 -17 0 -15 -32 2 -38 18
-6 14 -20 -5 -25 -14 -3 -11 -6 9 -11 15 -4 29 -14 32 -21 4 -11 -7 -12 -50
-8 -38 4 -54 2 -54 -6 0 -7 5 -9 10 -6 6 4 17 1 25 -5 8 -7 26 -9 43 -5 20 4
33 1 42 -10 11 -13 6 -15 -41 -16 -52 -2 -53 -2 -14 -8 26 -4 41 -12 43 -23 3
-15 -1 -15 -43 -3 -50 16 -70 12 -99 -18 -19 -20 -19 -20 15 -12 19 4 54 7 79
6 69 -2 93 6 87 29 -4 16 0 20 18 20 17 0 25 -7 27 -22 2 -15 13 -24 37 -31
44 -11 68 -3 51 18 -10 12 -9 15 4 15 9 0 26 9 38 20 12 11 28 20 36 20 9 0
12 6 8 16 -4 11 3 19 24 27 19 7 30 18 30 30 0 16 5 18 33 12 l32 -7 -35 27
c-35 27 -35 27 -7 21 20 -5 27 -3 22 4 -6 10 -50 31 -65 32 -3 0 -10 4 -16 9
-7 5 -21 6 -34 1 -23 -8 -23 -9 -3 -14 17 -4 20 -11 15 -34 l-5 -27 -18 22
c-19 23 -19 23 -19 2 0 -22 4 -25 53 -35 34 -8 36 -30 1 -23 -21 4 -26 0 -31
-24 -6 -32 -31 -58 -41 -43 -18 24 -94 46 -155 45 -24 -1 -36 2 -32 9 3 5 14
10 24 10 10 0 21 9 24 20 7 27 25 25 29 -2 3 -20 10 -23 50 -26 25 -2 52 -10
58 -18 18 -21 32 -17 28 9 -3 20 -8 22 -62 22 -37 0 -61 4 -63 12 -3 8 6 10
31 6 40 -6 66 9 66 37 0 10 -7 21 -16 24 -24 9 -32 -3 -11 -15 9 -6 17 -15 17
-20 0 -14 -83 -7 -87 7 -2 7 4 11 13 10 9 0 19 5 21 12 3 8 -8 12 -34 13 -21
0 -47 4 -58 8 -19 8 -19 8 0 19 19 11 19 11 -2 12 -16 0 -21 4 -16 16 5 13 2
15 -16 9 -21 -6 -51 13 -51 33 0 14 -32 24 -43 13 -5 -5 -1 -11 11 -15 27 -9
37 -46 12 -46 -10 0 -23 7 -30 15 -7 8 -23 15 -36 15 -28 0 -32 16 -6 23 9 3
3 5 -15 6 -25 1 -31 -2 -27 -14 4 -9 0 -15 -10 -15 -9 0 -16 8 -16 19 0 11 -4
22 -9 25 -13 8 -18 -82 -6 -95 7 -7 4 -10 -10 -8 -11 2 -26 0 -33 -5 -8 -5
-18 -4 -25 3 -8 8 -6 15 9 26 17 13 15 14 -31 14 -36 0 -44 -3 -30 -9 19 -7
18 -8 -7 -15 -17 -4 -25 -12 -21 -21 3 -9 -2 -14 -15 -14 -24 0 -48 25 -32 35
5 3 10 18 10 31 0 23 3 25 28 20 15 -3 49 -6 77 -8 43 -3 50 0 52 17 2 11 0
14 -3 8 -7 -15 -44 -17 -44 -3 0 6 6 10 13 10 8 0 22 9 33 21 12 14 25 18 41
14 29 -7 30 11 1 21 -16 5 -26 1 -36 -15 -9 -13 -25 -21 -44 -21 -25 0 -28 -3
-23 -21 7 -20 5 -21 -25 -15 -18 3 -36 6 -41 6 -5 0 -9 12 -9 26 0 21 -3 24
-21 19 -14 -5 -25 -2 -30 6 -7 11 -11 11 -17 2 -9 -14 -122 -6 -122 8 0 5 5 9
10 9 6 0 10 11 10 25 0 16 6 25 16 25 12 0 15 -7 11 -26 -5 -27 12 -42 34 -29
8 6 7 10 -5 17 -9 5 -16 13 -16 18 0 13 43 13 56 0 8 -8 15 -6 24 5 11 13 8
15 -22 15 -20 0 -57 3 -83 7 -45 6 -47 5 -40 -15 4 -16 2 -22 -8 -22 -13 0
-31 48 -39 105 -2 11 -14 22 -28 26 -23 6 -23 7 -6 14 11 5 27 3 39 -5 17 -10
23 -10 34 6 17 23 17 44 -1 44 -8 0 -21 3 -30 6 -12 4 -16 0 -16 -15 0 -12 -5
-21 -11 -21 -6 0 -10 12 -9 28 4 56 1 62 -30 62 -16 0 -30 5 -30 10 0 6 16 10
36 10 30 0 37 -4 46 -31 9 -27 15 -30 47 -29 61 3 81 0 81 -11 0 -6 -9 -8 -20
-4 -29 9 -26 -23 3 -35 25 -10 25 -10 -21 -15 -39 -3 -46 -9 -39 -30 4 -9 17
-14 34 -14 24 2 25 2 6 6 -34 7 -28 23 8 23 31 0 32 -1 26 -40 -5 -41 7 -56
16 -19 5 17 9 19 25 10 16 -8 21 -7 26 5 9 24 8 25 -21 22 -23 -3 -27 1 -29
24 -2 16 3 29 13 32 12 5 13 9 3 21 -10 12 -10 15 2 15 8 0 19 -5 26 -12 8 -8
14 -5 21 15 8 21 17 27 42 27 27 0 30 2 19 15 -11 13 -9 15 13 15 27 0 52 23
42 40 -3 5 -25 10 -48 10 -38 0 -39 -1 -21 -15 16 -12 16 -14 3 -15 -10 0 -16
-7 -15 -17 1 -14 -6 -17 -34 -14 -43 4 -46 7 -31 25 9 11 4 15 -34 20 -24 4
-48 12 -51 18 -5 7 -1 9 9 5 11 -4 17 -1 17 8 0 10 -11 15 -35 15 -38 0 -47
14 -14 23 18 5 19 8 8 29 -11 18 -14 20 -17 7 -2 -14 -9 -15 -45 -7 -52 12
-53 12 -28 37 l20 20 3 -24 c2 -20 6 -22 18 -14 11 8 12 12 3 16 -7 2 -13 11
-13 19 0 8 -13 17 -30 21 -24 4 -28 8 -19 19 9 11 5 14 -26 14 l-37 0 23 -20
c23 -19 23 -21 6 -34 -15 -12 -16 -14 -2 -20 19 -7 20 -26 0 -26 -8 0 -15 5
-15 10 0 6 -11 8 -25 4 -19 -5 -25 -2 -25 9 0 9 10 18 23 20 14 3 9 5 -14 6
-29 1 -38 6 -43 23 -7 28 11 49 24 28 5 -9 5 -19 -2 -27 -8 -10 -4 -13 16 -13
28 0 29 4 8 59 -4 10 3 12 29 7 31 -5 32 -5 11 6 -15 7 -22 18 -19 29 4 14 -5
20 -44 29 -30 7 -49 18 -49 26 0 8 3 14 8 14 19 1 42 29 36 45 -5 12 -9 13
-14 4 -5 -7 -18 -9 -34 -5 -33 8 -34 26 -2 26 13 0 26 6 29 13 5 15 57 -30 57
-50 0 -7 11 -15 25 -19 14 -4 24 -11 22 -18 -4 -12 -33 -12 -82 0 -17 4 -26 3
-22 -2 14 -14 86 -32 107 -27 22 6 80 -15 80 -28 0 -5 -5 -9 -11 -9 -5 0 -7
-4 -4 -10 10 -16 45 -12 45 6 0 14 7 15 40 10 36 -6 41 -4 38 11 -2 14 3 17
25 15 19 -2 27 1 27 12 0 8 10 16 23 18 17 3 11 7 -25 20 -47 16 -48 16 -48
-3 0 -14 -7 -19 -27 -19 -25 0 -26 -1 -8 -14 18 -13 18 -14 -3 -20 -12 -4 -30
-2 -41 3 -11 6 -31 11 -46 11 -17 0 -29 8 -37 25 -6 14 -17 25 -23 25 -13 0
-14 48 -1 68 4 7 3 12 -2 12 -6 0 -12 -7 -16 -15 -7 -19 -26 -20 -26 0 0 16
-34 38 -44 28 -3 -3 -6 6 -6 20 0 18 -5 27 -16 27 -8 0 -12 5 -9 10 4 6 13 7
23 1 9 -4 34 -11 55 -14 32 -5 38 -3 33 9 -8 22 14 26 59 10 22 -8 44 -12 49
-9 14 9 -36 32 -70 33 -29 0 -54 15 -54 32 0 5 9 4 19 -2 30 -15 88 -13 95 5
3 8 13 15 22 15 11 0 14 -5 10 -16 -3 -9 -6 -18 -6 -20 0 -2 -7 -4 -17 -4 -40
0 8 -17 77 -27 l34 -6 -27 32 c-15 18 -27 37 -27 42 0 13 -46 40 -85 49 -27 6
-35 5 -35 -6 0 -9 12 -14 35 -14 19 0 35 -4 35 -10 0 -5 -15 -10 -32 -10 -24
0 -29 -3 -18 -10 8 -5 11 -12 8 -16 -4 -4 -18 0 -31 9 -27 18 -67 12 -67 -9 0
-19 -68 -19 -89 0 -11 10 -21 12 -31 6 -27 -17 6 -33 69 -34 51 -1 61 -4 61
-18 0 -21 4 -21 -59 -7 -43 9 -53 8 -67 -5 -17 -17 -59 -22 -68 -7 -4 5 7 12
24 16 40 9 38 25 -2 25 -31 1 -32 1 -12 13 12 7 19 18 16 26 -3 10 0 12 12 8
10 -4 24 1 36 13 11 11 29 20 39 20 11 0 22 4 26 10 3 5 14 1 25 -10 22 -22
40 -26 40 -10 0 6 -7 10 -15 10 -8 0 -15 7 -15 15 0 9 -6 17 -12 19 -103 30
-128 39 -128 47 0 5 15 6 33 3 24 -4 28 -3 17 5 -20 14 -63 14 -77 0 -14 -14
-83 -3 -83 13 0 7 14 8 40 4 32 -5 40 -3 40 9 0 18 46 21 52 4 2 -6 12 -10 22
-8 16 4 15 7 -8 32 -28 30 -69 40 -45 11 12 -15 11 -16 -7 -10 -14 4 -26 1
-34 -9 -7 -8 -16 -15 -21 -15 -15 0 -10 40 6 46 8 4 15 13 15 21 0 11 6 13 20
9 67 -21 63 -21 49 5 -7 13 -12 26 -12 29 2 17 -19 50 -32 50 -22 0 -18 -28 6
-41 17 -9 19 -13 8 -20 -22 -14 -29 -11 -39 16 -5 14 -14 25 -20 25 -5 0 -10
23 -10 50 0 44 2 50 21 50 18 0 19 -3 10 -14 -17 -20 2 -54 31 -58 13 -2 27
-13 33 -25 5 -13 16 -23 23 -23 9 0 11 -7 7 -21 -6 -19 -4 -21 14 -16 25 6 28
-8 4 -18 -16 -7 -15 -9 6 -14 30 -8 40 -31 14 -32 -12 0 -9 -4 10 -11 15 -5
27 -17 27 -25 0 -12 -3 -13 -15 -3 -8 6 -19 8 -26 4 -19 -11 13 -23 80 -30 34
-4 61 -11 61 -16 0 -5 -12 -7 -27 -6 -24 3 -28 -1 -28 -22 0 -17 6 -26 20 -29
17 -3 18 -1 6 13 -11 13 -11 17 4 22 9 4 28 1 42 -5 14 -6 28 -9 31 -7 7 8
-41 56 -55 56 -7 0 -13 7 -13 15 0 9 -7 18 -15 21 -8 4 -15 12 -15 20 0 7 -13
23 -30 36 -16 12 -30 25 -30 29 0 11 -49 59 -60 59 -5 0 -14 9 -20 20 -6 11
-17 20 -25 20 -8 0 -15 8 -15 18 0 10 -16 33 -35 52 -19 19 -35 39 -35 45 0 6
-12 20 -28 32 -21 15 -33 18 -51 11 -16 -5 -28 -5 -35 2 -7 7 -3 10 11 10 36
0 34 15 -9 60 -35 36 -42 40 -50 26 -5 -9 -16 -16 -23 -16 -22 0 -18 27 5 33
29 7 25 18 -21 52 -22 16 -42 39 -45 51 -11 42 -61 71 -82 47z m65 -49 c-3 -3
-12 -4 -19 -1 -8 3 -5 6 6 6 11 1 17 -2 13 -5z m63 -74 c0 -5 -4 -10 -10 -10
-5 0 -10 5 -10 10 0 6 5 10 10 10 6 0 10 -4 10 -10z m70 -68 c0 -11 -37 -32
-44 -25 -8 9 14 33 30 33 8 0 14 -3 14 -8z m68 -110 c-20 -4 -21 -8 -18 -66 1
-25 -2 -36 -9 -32 -6 4 -11 14 -11 23 0 9 -12 26 -27 39 -20 17 -23 24 -12 24
9 0 24 9 34 20 15 16 21 17 39 8 19 -11 19 -13 4 -16z m33 -45 c-7 -7 -7 -14
0 -24 9 -10 8 -13 -1 -13 -10 0 -10 -3 0 -15 10 -12 9 -15 -8 -15 -13 0 -22 9
-26 25 -7 27 -2 40 23 66 14 14 17 14 19 1 2 -8 -1 -19 -7 -25z m-32 -81 c7
-8 21 -12 34 -9 21 5 21 5 5 -12 -16 -17 -18 -17 -42 -1 -25 16 -35 36 -17 36
5 0 14 -6 20 -14z m43 -70 c-2 -9 4 -16 13 -16 19 0 20 -16 1 -23 -8 -3 -22 3
-31 13 -10 11 -24 16 -33 13 -10 -4 -6 3 8 15 28 24 46 23 42 -2z m-22 -56 c0
-5 -7 -7 -15 -4 -8 4 -15 8 -15 10 0 2 7 4 15 4 8 0 15 -4 15 -10z m269 -29
c6 -10 8 -21 5 -24 -3 -3 4 -8 15 -12 21 -6 29 -25 12 -25 -15 0 -41 30 -41
46 0 8 -7 14 -16 14 -8 0 -12 5 -9 10 10 15 23 12 34 -9z m-249 -6 c0 -8 -9
-15 -20 -15 -20 0 -26 11 -13 23 12 13 33 7 33 -8z m65 -85 c13 -14 22 -17 29
-10 15 15 42 12 56 -5 12 -14 8 -16 -36 -12 -52 4 -94 21 -94 37 0 17 26 11
45 -10z m-2 -40 c21 -25 22 -60 2 -60 -9 0 -15 9 -15 25 0 18 -7 26 -25 31
-14 3 -25 10 -25 15 0 17 46 9 63 -11z m67 -15 c0 -8 -4 -15 -9 -15 -13 0 -22
16 -14 24 11 11 23 6 23 -9z m306 -83 c-22 -5 -30 3 -21 18 5 8 11 7 22 -2 15
-12 14 -13 -1 -16z m-316 -62 c0 -5 -11 -10 -25 -10 -14 0 -25 5 -25 10 0 6
11 10 25 10 14 0 25 -4 25 -10z m57 -14 c-2 -6 -13 -9 -23 -8 -26 5 -31 12
-15 22 18 10 43 1 38 -14z m-32 -25 c10 -17 -10 -20 -35 -5 l-25 13 27 1 c15
0 29 -4 33 -9z m365 -111 c0 -5 -7 -10 -15 -10 -8 0 -15 5 -15 10 0 6 7 10 15
10 8 0 15 -4 15 -10z m-299 -50 c10 0 19 -5 19 -11 0 -13 -50 -3 -65 13 -7 8
-4 9 8 4 10 -3 27 -6 38 -6z m100 -133 c-13 -13 -26 -3 -16 12 3 6 11 8 17 5
6 -4 6 -10 -1 -17z m37 -63 c13 -3 22 -12 22 -23 0 -11 9 -21 21 -24 12 -3 18
-10 14 -17 -9 -14 25 -41 43 -35 8 3 19 2 25 -2 7 -5 0 -10 -18 -14 -30 -6
-28 -8 21 -24 31 -10 5 -17 -36 -10 -37 6 -41 9 -36 30 6 23 3 24 -46 27 -46
3 -53 6 -56 26 -2 12 -10 22 -17 22 -15 0 -30 34 -21 49 5 8 28 6 84 -5z m-98
-34 c0 -5 -7 -10 -15 -10 -8 0 -15 5 -15 10 0 6 7 10 15 10 8 0 15 -4 15 -10z
m40 -38 c0 -14 -11 -21 -26 -15 -21 8 -17 23 6 23 11 0 20 -4 20 -8z m91 -57
c-1 -15 -24 -12 -29 3 -3 9 2 13 12 10 10 -1 17 -7 17 -13z m147 -23 c6 -18
-15 -14 -22 4 -4 10 -1 14 6 12 6 -2 14 -10 16 -16z m-138 -52 c0 -5 -4 -10
-9 -10 -6 0 -13 5 -16 10 -3 6 1 10 9 10 9 0 16 -4 16 -10z m188 -248 c2 -7
-3 -12 -12 -12 -9 0 -16 7 -16 16 0 17 22 14 28 -4z m442 -127 c10 -12 9 -16
-3 -21 -9 -3 -13 -12 -11 -19 8 -19 -14 -29 -31 -15 -18 15 -19 42 -3 58 16
16 33 15 48 -3z m255 -22 c4 -14 2 -23 -4 -23 -14 0 -33 38 -25 51 8 13 19 2
29 -28z m-192 -104 c20 -6 37 -12 37 -15 0 -3 -9 -17 -20 -31 -18 -24 -20 -24
-20 -6 0 26 -16 39 -57 48 -18 3 -33 11 -33 16 0 9 14 7 93 -12z"/>
<path d="M10418 2775 c17 -8 32 -22 32 -30 0 -8 6 -15 13 -15 6 0 12 11 12 25
0 14 -5 25 -11 25 -6 0 -27 2 -45 5 l-34 5 33 -15z"/>
<path d="M9663 3988 c-2 -5 -1 -8 4 -8 4 0 1 -4 -7 -10 -8 -5 -11 -12 -8 -16
8 -7 78 23 78 34 0 9 -61 9 -67 0z"/>
<path d="M9755 3969 c-10 -15 3 -25 16 -12 7 7 7 13 1 17 -6 3 -14 1 -17 -5z"/>
<path d="M9828 3958 c9 -9 15 -9 24 0 9 9 7 12 -12 12 -19 0 -21 -3 -12 -12z"/>
<path d="M9675 3930 c-3 -5 -1 -10 4 -10 6 0 11 5 11 10 0 6 -2 10 -4 10 -3 0
-8 -4 -11 -10z"/>
<path d="M9607 3919 c-21 -12 -13 -29 14 -29 12 0 19 7 19 20 0 22 -7 24 -33
9z"/>
<path d="M9718 3923 c7 -3 16 -2 19 1 4 3 -2 6 -13 5 -11 0 -14 -3 -6 -6z"/>
<path d="M9780 3919 c0 -5 5 -7 10 -4 6 3 10 8 10 11 0 2 -4 4 -10 4 -5 0 -10
-5 -10 -11z"/>
<path d="M9768 3893 c7 -3 16 -2 19 1 4 3 -2 6 -13 5 -11 0 -14 -3 -6 -6z"/>
<path d="M9538 3856 c-26 -32 -26 -34 -8 -39 16 -4 20 0 20 18 0 13 5 27 10
30 6 3 10 1 10 -4 0 -6 9 -11 20 -11 19 0 19 1 3 20 -10 11 -20 20 -23 20 -3
0 -17 -15 -32 -34z"/>
<path d="M9830 3880 c0 -5 9 -10 19 -10 11 0 23 5 26 10 4 6 -5 10 -19 10 -14
0 -26 -4 -26 -10z"/>
<path d="M9658 3853 c7 -3 16 -2 19 1 4 3 -2 6 -13 5 -11 0 -14 -3 -6 -6z"/>
<path d="M9715 3850 c3 -5 10 -10 16 -10 5 0 9 5 9 10 0 6 -7 10 -16 10 -8 0
-12 -4 -9 -10z"/>
<path d="M9838 3843 c7 -3 16 -2 19 1 4 3 -2 6 -13 5 -11 0 -14 -3 -6 -6z"/>
<path d="M9900 3840 c0 -5 5 -10 11 -10 5 0 7 5 4 10 -3 6 -8 10 -11 10 -2 0
-4 -4 -4 -10z"/>
<path d="M9890 3810 c-12 -8 -11 -10 8 -10 12 0 22 5 22 10 0 13 -11 13 -30 0z"/>
<path d="M9480 3800 c0 -14 38 -32 45 -21 3 6 -3 15 -14 20 -24 14 -31 14 -31
1z"/>
<path d="M9605 3790 c-3 -5 -1 -10 4 -10 6 0 11 5 11 10 0 6 -2 10 -4 10 -3 0
-8 -4 -11 -10z"/>
<path d="M9437 3773 c-12 -11 -8 -23 7 -23 8 0 16 7 20 15 5 15 -14 21 -27 8z"/>
<path d="M9671 3771 c-8 -6 -9 -11 -3 -15 6 -3 14 -1 17 5 9 14 2 20 -14 10z"/>
<path d="M9808 3763 c12 -2 32 -2 45 0 12 2 2 4 -23 4 -25 0 -35 -2 -22 -4z"/>
<path d="M9410 3730 c0 -5 5 -10 10 -10 6 0 10 5 10 10 0 6 -4 10 -10 10 -5 0
-10 -4 -10 -10z"/>
<path d="M9760 3730 c-13 -8 -12 -10 3 -10 9 0 17 5 17 10 0 12 -1 12 -20 0z"/>
<path d="M9688 3723 c6 -2 18 -2 25 0 6 3 1 5 -13 5 -14 0 -19 -2 -12 -5z"/>
<path d="M9878 3713 c7 -3 16 -2 19 1 4 3 -2 6 -13 5 -11 0 -14 -3 -6 -6z"/>
<path d="M9367 3692 c-22 -24 -21 -32 3 -32 15 0 20 7 20 25 0 30 -2 30 -23 7z"/>
<path d="M9798 3693 c7 -3 16 -2 19 1 4 3 -2 6 -13 5 -11 0 -14 -3 -6 -6z"/>
<path d="M9890 3680 c0 -5 5 -10 10 -10 6 0 10 5 10 10 0 6 -4 10 -10 10 -5 0
-10 -4 -10 -10z"/>
<path d="M9945 3680 c-3 -5 -1 -10 4 -10 6 0 11 5 11 10 0 6 -2 10 -4 10 -3 0
-8 -4 -11 -10z"/>
<path d="M9548 3673 c7 -3 16 -2 19 1 4 3 -2 6 -13 5 -11 0 -14 -3 -6 -6z"/>
<path d="M9793 3669 c14 -8 22 -8 30 0 8 8 3 11 -18 11 -26 -1 -28 -2 -12 -11z"/>
<path d="M9675 3660 c3 -5 8 -10 11 -10 2 0 4 5 4 10 0 6 -5 10 -11 10 -5 0
-7 -4 -4 -10z"/>
<path d="M9620 3650 c0 -5 5 -10 10 -10 6 0 10 5 10 10 0 6 -4 10 -10 10 -5 0
-10 -4 -10 -10z"/>
<path d="M9935 3640 c-19 -8 -19 -9 2 -9 12 -1 25 4 28 9 7 12 -2 12 -30 0z"/>
<path d="M9310 3630 c0 -5 -6 -10 -13 -10 -8 0 -22 -9 -32 -20 -18 -20 -17
-20 21 -20 28 0 35 3 24 10 -17 10 -16 12 25 33 l30 16 -27 1 c-16 0 -28 -4
-28 -10z"/>
<path d="M9815 3630 c-3 -5 -2 -10 4 -10 5 0 13 5 16 10 3 6 2 10 -4 10 -5 0
-13 -4 -16 -10z"/>
<path d="M9392 3610 c-7 -11 -8 -20 -3 -20 9 0 24 30 18 36 -1 2 -8 -6 -15
-16z"/>
<path d="M9455 3600 c-8 -13 5 -13 25 0 13 8 13 10 -2 10 -9 0 -20 -4 -23 -10z"/>
<path d="M9948 3598 c9 -9 15 -9 24 0 9 9 7 12 -12 12 -19 0 -21 -3 -12 -12z"/>
<path d="M9517 3573 c-4 -3 -7 -11 -7 -17 0 -6 5 -5 12 2 6 6 9 14 7 17 -3 3
-9 2 -12 -2z"/>
<path d="M10000 3569 c0 -5 5 -7 10 -4 6 3 10 8 10 11 0 2 -4 4 -10 4 -5 0
-10 -5 -10 -11z"/>
<path d="M9260 3560 c0 -5 5 -10 11 -10 5 0 7 5 4 10 -3 6 -8 10 -11 10 -2 0
-4 -4 -4 -10z"/>
<path d="M9347 3545 c-4 -8 -2 -17 2 -20 5 -2 11 4 14 15 6 23 -8 27 -16 5z"/>
<path d="M9825 3550 c-3 -5 -1 -10 4 -10 6 0 11 5 11 10 0 6 -2 10 -4 10 -3 0
-8 -4 -11 -10z"/>
<path d="M9220 3535 c0 -8 -9 -15 -20 -15 -11 0 -20 -4 -20 -9 0 -4 12 -8 28
-7 20 1 28 7 30 24 2 12 -1 22 -7 22 -6 0 -11 -7 -11 -15z"/>
<path d="M9735 3540 c4 -6 11 -8 16 -5 14 9 11 15 -7 15 -8 0 -12 -5 -9 -10z"/>
<path d="M9850 3519 c0 -5 5 -7 10 -4 6 3 10 8 10 11 0 2 -4 4 -10 4 -5 0 -10
-5 -10 -11z"/>
<path d="M9795 3510 c4 -6 11 -8 16 -5 14 9 11 15 -7 15 -8 0 -12 -5 -9 -10z"/>
<path d="M9940 3510 c0 -5 5 -10 11 -10 6 0 9 -7 5 -15 -8 -22 12 -18 24 4 14
28 13 31 -15 31 -14 0 -25 -4 -25 -10z"/>
<path d="M9340 3492 c-14 -2 -29 -8 -35 -14 -7 -7 1 -9 24 -4 51 9 61 26 11
18z"/>
<path d="M9420 3490 c0 -5 7 -10 16 -10 8 0 12 5 9 10 -3 6 -10 10 -16 10 -5
0 -9 -4 -9 -10z"/>
<path d="M9475 3490 c-3 -5 -1 -10 4 -10 6 0 11 5 11 10 0 6 -2 10 -4 10 -3 0
-8 -4 -11 -10z"/>
<path d="M9598 3493 c7 -3 16 -2 19 1 4 3 -2 6 -13 5 -11 0 -14 -3 -6 -6z"/>
<path d="M9120 3455 c-19 -19 -41 -35 -47 -35 -7 0 -13 -6 -13 -14 0 -8 -6
-16 -14 -19 -15 -6 -10 -57 5 -57 5 0 8 5 7 11 -2 6 15 17 37 25 39 13 39 13
7 10 -36 -3 -40 17 -4 22 12 2 22 10 22 18 0 8 5 14 10 14 6 0 10 7 10 15 0
18 20 20 20 3 0 -7 5 -5 11 5 10 17 5 37 -10 37 -4 0 -22 -16 -41 -35z"/>
<path d="M9216 3481 c-3 -5 1 -12 10 -15 22 -8 25 -4 9 11 -8 7 -16 9 -19 4z"/>
<path d="M9798 3483 c7 -3 16 -2 19 1 4 3 -2 6 -13 5 -11 0 -14 -3 -6 -6z"/>
<path d="M9840 3480 c0 -5 5 -10 10 -10 6 0 10 5 10 10 0 6 -4 10 -10 10 -5 0
-10 -4 -10 -10z"/>
<path d="M9870 3480 c0 -5 5 -10 10 -10 6 0 10 5 10 10 0 6 -4 10 -10 10 -5 0
-10 -4 -10 -10z"/>
<path d="M9708 3473 c7 -3 16 -2 19 1 4 3 -2 6 -13 5 -11 0 -14 -3 -6 -6z"/>
<path d="M9530 3460 c0 -13 11 -13 30 0 12 8 11 10 -7 10 -13 0 -23 -4 -23
-10z"/>
<path d="M9367 3453 c-9 -2 -15 -8 -12 -12 6 -11 55 -1 55 10 0 9 -13 10 -43
2z"/>
<path d="M9840 3439 c0 -5 5 -7 10 -4 6 3 10 8 10 11 0 2 -4 4 -10 4 -5 0 -10
-5 -10 -11z"/>
<path d="M9180 3430 c0 -5 5 -10 10 -10 6 0 10 5 10 10 0 6 -4 10 -10 10 -5 0
-10 -4 -10 -10z"/>
<path d="M9938 3433 c7 -3 16 -2 19 1 4 3 -2 6 -13 5 -11 0 -14 -3 -6 -6z"/>
<path d="M9640 3415 c0 -9 5 -15 11 -13 6 2 11 8 11 13 0 5 -5 11 -11 13 -6 2
-11 -4 -11 -13z"/>
<path d="M9390 3400 c0 -5 7 -10 16 -10 8 0 12 5 9 10 -3 6 -10 10 -16 10 -5
0 -9 -4 -9 -10z"/>
<path d="M10038 3403 c7 -3 16 -2 19 1 4 3 -2 6 -13 5 -11 0 -14 -3 -6 -6z"/>
<path d="M10338 3403 c7 -3 16 -2 19 1 4 3 -2 6 -13 5 -11 0 -14 -3 -6 -6z"/>
<path d="M9815 3391 c-3 -5 -1 -12 5 -16 5 -3 10 1 10 9 0 18 -6 21 -15 7z"/>
<path d="M9293 3375 c-9 -25 4 -29 17 -6 7 15 7 21 0 21 -6 0 -13 -7 -17 -15z"/>
<path d="M9630 3380 c0 -5 5 -10 10 -10 6 0 10 5 10 10 0 6 -4 10 -10 10 -5 0
-10 -4 -10 -10z"/>
<path d="M9705 3380 c3 -5 15 -10 26 -10 10 0 19 5 19 10 0 6 -12 10 -26 10
-14 0 -23 -4 -19 -10z"/>
<path d="M9325 3370 c-3 -5 -1 -10 4 -10 6 0 11 5 11 10 0 6 -2 10 -4 10 -3 0
-8 -4 -11 -10z"/>
<path d="M9520 3360 c20 -5 39 -5 45 1 5 5 -8 9 -35 8 l-45 -1 35 -8z"/>
<path d="M9950 3360 c0 -5 6 -10 14 -10 8 0 18 5 21 10 3 6 -3 10 -14 10 -12
0 -21 -4 -21 -10z"/>
<path d="M8991 3350 c-11 -6 -11 -9 0 -13 10 -3 8 -7 -6 -13 -11 -4 -39 -27
-62 -51 -24 -24 -50 -43 -58 -43 -8 0 -15 -4 -15 -10 0 -11 -67 -80 -78 -80
-4 0 -20 -16 -35 -35 -27 -34 -27 -35 -6 -35 12 0 23 8 26 20 3 11 13 20 22
20 10 0 26 7 37 15 18 13 18 14 1 15 -27 0 -10 20 17 20 19 0 23 5 21 24 -3
22 0 24 31 21 28 -2 32 0 22 12 -9 11 -7 15 11 20 14 4 20 11 16 20 -4 12 0
14 20 9 20 -5 25 -3 25 14 0 11 4 20 8 20 5 0 16 6 25 13 13 10 14 15 3 29 -7
10 -17 13 -25 8z"/>
<path d="M9898 3340 c-7 -24 -3 -38 8 -28 3 4 4 17 2 30 l-3 23 -7 -25z"/>
<path d="M9118 3343 c7 -3 16 -2 19 1 4 3 -2 6 -13 5 -11 0 -14 -3 -6 -6z"/>
<path d="M9602 3341 c4 -13 18 -16 19 -4 0 4 -5 9 -11 12 -7 2 -11 -2 -8 -8z"/>
<path d="M9445 3330 c-3 -5 -1 -10 4 -10 6 0 11 5 11 10 0 6 -2 10 -4 10 -3 0
-8 -4 -11 -10z"/>
<path d="M9495 3330 c-3 -5 -1 -10 4 -10 6 0 11 5 11 10 0 6 -2 10 -4 10 -3 0
-8 -4 -11 -10z"/>
<path d="M9335 3320 c-3 -5 -1 -10 4 -10 6 0 11 5 11 10 0 6 -2 10 -4 10 -3 0
-8 -4 -11 -10z"/>
<path d="M9410 3319 c0 -5 5 -7 10 -4 6 3 10 8 10 11 0 2 -4 4 -10 4 -5 0 -10
-5 -10 -11z"/>
<path d="M9540 3319 c0 -5 5 -7 10 -4 6 3 10 8 10 11 0 2 -4 4 -10 4 -5 0 -10
-5 -10 -11z"/>
<path d="M9965 3320 c4 -6 11 -8 16 -5 14 9 11 15 -7 15 -8 0 -12 -5 -9 -10z"/>
<path d="M10045 3320 c-3 -5 -1 -10 4 -10 6 0 11 5 11 10 0 6 -2 10 -4 10 -3
0 -8 -4 -11 -10z"/>
<path d="M9068 3313 c7 -3 16 -2 19 1 4 3 -2 6 -13 5 -11 0 -14 -3 -6 -6z"/>
<path d="M9835 3310 c-3 -5 -1 -10 4 -10 6 0 11 5 11 10 0 6 -2 10 -4 10 -3 0
-8 -4 -11 -10z"/>
<path d="M10300 3310 c20 -13 50 -13 50 0 0 6 -15 10 -32 10 -25 0 -29 -3 -18
-10z"/>
<path d="M9625 3300 c-4 -6 13 -10 44 -10 27 0 53 5 56 10 4 6 -13 10 -44 10
-27 0 -53 -4 -56 -10z"/>
<path d="M9778 3303 c7 -3 16 -2 19 1 4 3 -2 6 -13 5 -11 0 -14 -3 -6 -6z"/>
<path d="M9177 3283 c-4 -3 -7 -11 -7 -17 0 -6 5 -5 12 2 6 6 9 14 7 17 -3 3
-9 2 -12 -2z"/>
<path d="M9328 3283 c6 -2 18 -2 25 0 6 3 1 5 -13 5 -14 0 -19 -2 -12 -5z"/>
<path d="M9960 3279 c0 -5 5 -7 10 -4 6 3 10 8 10 11 0 2 -4 4 -10 4 -5 0 -10
-5 -10 -11z"/>
<path d="M9450 3250 c0 -5 5 -10 10 -10 6 0 10 5 10 10 0 6 -4 10 -10 10 -5 0
-10 -4 -10 -10z"/>
<path d="M9666 3251 c-4 -5 2 -7 13 -4 10 3 22 0 25 -6 10 -16 36 -13 36 4 0
17 -65 22 -74 6z"/>
<path d="M9860 3256 c0 -2 7 -9 15 -16 13 -11 14 -10 9 4 -5 14 -24 23 -24 12z"/>
<path d="M9978 3253 c7 -3 16 -2 19 1 4 3 -2 6 -13 5 -11 0 -14 -3 -6 -6z"/>
<path d="M9245 3233 c-13 -12 -14 -18 -5 -21 7 -3 16 1 20 8 4 7 13 9 20 5 8
-5 11 -3 8 5 -7 21 -24 22 -43 3z"/>
<path d="M9365 3240 c-3 -5 1 -10 9 -10 8 0 18 5 21 10 3 6 -1 10 -9 10 -8 0
-18 -4 -21 -10z"/>
<path d="M9048 3233 c6 -2 18 -2 25 0 6 3 1 5 -13 5 -14 0 -19 -2 -12 -5z"/>
<path d="M9197 3233 c-4 -3 -7 -11 -7 -17 0 -6 5 -5 12 2 6 6 9 14 7 17 -3 3
-9 2 -12 -2z"/>
<path d="M9798 3233 c6 -2 18 -2 25 0 6 3 1 5 -13 5 -14 0 -19 -2 -12 -5z"/>
<path d="M9900 3229 c0 -5 5 -7 10 -4 6 3 10 8 10 11 0 2 -4 4 -10 4 -5 0 -10
-5 -10 -11z"/>
<path d="M9608 3223 c7 -3 16 -2 19 1 4 3 -2 6 -13 5 -11 0 -14 -3 -6 -6z"/>
<path d="M10549 3217 c12 -8 34 -12 47 -9 18 3 24 0 24 -13 0 -14 -6 -16 -42
-10 -40 6 -42 6 -23 -9 19 -15 19 -15 -7 -16 -18 0 -28 -5 -28 -15 0 -8 -6
-15 -13 -15 -23 0 -57 31 -57 52 0 21 0 21 25 -2 18 -17 28 -21 36 -13 13 13
2 36 -12 28 -5 -4 -16 1 -25 9 -31 32 -62 7 -48 -37 11 -36 33 -49 85 -52 41
-3 50 -1 45 11 -4 10 2 14 23 14 16 0 34 7 41 15 7 8 21 15 31 15 11 0 19 -7
19 -15 0 -8 -9 -15 -20 -15 -11 0 -20 -4 -20 -8 0 -14 40 -52 55 -52 18 0 20
17 3 22 -10 4 -10 10 -2 29 13 28 8 49 -11 49 -7 0 -19 9 -26 19 -10 13 -32
21 -69 25 -49 5 -53 5 -31 -7z"/>
<path d="M8930 3199 c0 -5 5 -7 10 -4 6 3 10 8 10 11 0 2 -4 4 -10 4 -5 0 -10
-5 -10 -11z"/>
<path d="M9636 3201 c-3 -5 1 -11 9 -15 8 -3 15 -1 15 4 0 13 -18 22 -24 11z"/>
<path d="M9785 3200 c-3 -5 -1 -10 4 -10 6 0 11 5 11 10 0 6 -2 10 -4 10 -3 0
-8 -4 -11 -10z"/>
<path d="M9905 3200 l-30 -8 33 -1 c17 0 32 4 32 9 0 6 -1 9 -2 9 -2 -1 -16
-5 -33 -9z"/>
<path d="M10380 3186 c0 -9 5 -16 10 -16 6 0 10 4 10 9 0 6 -4 13 -10 16 -5 3
-10 -1 -10 -9z"/>
<path d="M9068 3183 c6 -2 18 -2 25 0 6 3 1 5 -13 5 -14 0 -19 -2 -12 -5z"/>
<path d="M8925 3170 c-3 -5 -1 -10 4 -10 6 0 11 5 11 10 0 6 -2 10 -4 10 -3 0
-8 -4 -11 -10z"/>
<path d="M9405 3170 c3 -5 8 -10 11 -10 2 0 4 5 4 10 0 6 -5 10 -11 10 -5 0
-7 -4 -4 -10z"/>
<path d="M9508 3173 c7 -3 16 -2 19 1 4 3 -2 6 -13 5 -11 0 -14 -3 -6 -6z"/>
<path d="M9928 3172 c-27 -2 -48 -6 -48 -10 0 -7 53 -6 100 1 33 5 -8 12 -52
9z"/>
<path d="M9768 3163 c7 -3 16 -2 19 1 4 3 -2 6 -13 5 -11 0 -14 -3 -6 -6z"/>
<path d="M10025 3160 c3 -5 8 -10 11 -10 2 0 4 5 4 10 0 6 -5 10 -11 10 -5 0
-7 -4 -4 -10z"/>
<path d="M8875 3140 c-3 -5 3 -10 15 -10 12 0 18 5 15 10 -3 6 -10 10 -15 10
-5 0 -12 -4 -15 -10z"/>
<path d="M9018 3143 c7 -3 16 -2 19 1 4 3 -2 6 -13 5 -11 0 -14 -3 -6 -6z"/>
<path d="M9340 3140 c0 -5 5 -10 11 -10 5 0 7 5 4 10 -3 6 -8 10 -11 10 -2 0
-4 -4 -4 -10z"/>
<path d="M9420 3140 c-24 -8 -23 -8 8 -9 17 -1 32 4 32 9 0 11 -5 11 -40 0z"/>
<path d="M9655 3140 c3 -5 12 -7 20 -3 21 7 19 13 -6 13 -11 0 -18 -4 -14 -10z"/>
<path d="M9810 3130 c-12 -8 -12 -10 2 -15 20 -8 41 2 33 16 -8 11 -16 11 -35
-1z"/>
<path d="M10095 3130 l-40 -7 43 -2 c23 0 42 4 42 9 0 6 -1 9 -2 9 -2 -1 -21
-5 -43 -9z"/>
<path d="M9566 3115 c-3 -8 -1 -15 4 -15 13 0 22 18 11 24 -5 3 -11 -1 -15 -9z"/>
<path d="M10713 3116 c15 -12 16 -18 8 -35 -6 -11 -11 -30 -11 -42 0 -18 -2
-19 -15 -9 -9 7 -19 10 -23 6 -4 -4 1 -13 11 -20 26 -20 21 -29 -12 -23 -42 9
-44 -2 -10 -34 30 -28 67 -43 41 -17 -7 7 -12 15 -12 18 0 10 43 10 55 0 7 -6
32 -9 56 -7 40 2 44 0 41 -20 -2 -13 2 -23 7 -23 6 0 11 -4 11 -9 0 -5 -10 -7
-22 -4 -22 4 -23 4 -4 -11 11 -9 34 -16 52 -16 38 0 51 -14 34 -35 -13 -16
-34 -10 -25 6 4 5 -1 9 -9 9 -9 0 -16 -4 -16 -10 0 -5 -9 -10 -20 -10 -11 0
-20 5 -20 10 0 6 -4 10 -10 10 -5 0 -10 -6 -10 -13 0 -17 129 -40 146 -26 8 7
13 0 18 -23 8 -39 -1 -49 -33 -37 -18 7 -21 12 -12 22 8 11 -5 16 -65 26 -42
7 -78 10 -81 7 -6 -5 14 -10 80 -21 28 -4 37 -11 37 -25 0 -24 -8 -25 -31 -4
-11 10 -29 14 -51 11 -29 -3 -30 -5 -11 -11 13 -5 19 -14 16 -22 -4 -10 4 -14
31 -14 20 0 36 -4 36 -10 0 -5 11 -10 25 -10 14 0 25 -4 25 -10 0 -5 -14 -10
-31 -10 -16 0 -28 -4 -25 -9 3 -5 21 -9 40 -9 44 0 82 -20 67 -35 -6 -6 -11
-19 -11 -29 0 -14 8 -18 38 -17 32 0 34 1 15 9 -31 13 -29 22 2 14 15 -4 25
-2 25 5 0 6 -13 11 -28 11 -26 0 -28 3 -24 29 3 26 1 29 -16 24 -11 -2 -23 0
-26 6 -4 6 0 11 10 11 29 0 3 18 -31 22 -21 2 -31 9 -33 23 -3 16 -1 18 9 8
15 -15 79 -17 79 -3 0 6 10 10 23 10 20 -1 21 -2 5 -14 -20 -15 -24 -41 -8
-51 18 -11 32 6 18 23 -11 14 -10 15 6 9 10 -4 24 -3 31 3 20 17 -24 61 -53
53 -16 -4 -22 -1 -22 12 0 11 5 15 15 11 8 -3 15 -1 15 4 0 5 -9 12 -20 15
-11 4 -18 10 -15 15 3 4 -2 10 -10 14 -8 3 -15 12 -15 21 0 8 -6 15 -14 15 -8
0 -17 6 -19 13 -4 10 -6 10 -6 0 -1 -18 -41 -16 -41 1 0 8 6 17 13 19 8 4 3
14 -15 31 -16 14 -28 29 -28 35 0 5 -9 13 -20 16 -11 3 -20 10 -20 14 0 5 -10
21 -22 36 -18 23 -22 25 -30 11 -5 -8 -15 -13 -24 -9 -11 4 -12 8 -3 19 16 20
-4 64 -28 64 -17 -1 -17 -1 0 -14z m67 -91 c0 -8 -7 -15 -15 -15 -26 0 -18 20
13 29 1 1 2 -6 2 -14z m18 -35 c12 0 22 -4 22 -10 0 -11 -24 -13 -69 -4 -21 4
-31 12 -31 25 0 16 2 17 28 3 15 -7 37 -14 50 -14z m82 -70 c0 -5 -2 -10 -4
-10 -3 0 -8 5 -11 10 -3 6 -1 10 4 10 6 0 11 -4 11 -10z m80 -70 c0 -5 -4 -10
-10 -10 -5 0 -10 5 -10 10 0 6 5 10 10 10 6 0 10 -4 10 -10z"/>
<path d="M9718 3113 c7 -3 16 -2 19 1 4 3 -2 6 -13 5 -11 0 -14 -3 -6 -6z"/>
<path d="M8850 3100 c-9 -6 -10 -10 -3 -10 6 0 15 5 18 10 8 12 4 12 -15 0z"/>
<path d="M9065 3101 c-3 -5 -1 -12 5 -16 5 -3 10 1 10 9 0 18 -6 21 -15 7z"/>
<path d="M9390 3100 c0 -13 11 -13 30 0 12 8 11 10 -7 10 -13 0 -23 -4 -23
-10z"/>
<path d="M8690 3089 c0 -5 5 -7 10 -4 6 3 10 8 10 11 0 2 -4 4 -10 4 -5 0 -10
-5 -10 -11z"/>
<path d="M9185 3090 c3 -5 10 -10 16 -10 5 0 9 5 9 10 0 6 -7 10 -16 10 -8 0
-12 -4 -9 -10z"/>
<path d="M9288 3093 c6 -2 18 -2 25 0 6 3 1 5 -13 5 -14 0 -19 -2 -12 -5z"/>
<path d="M10060 3089 c0 -5 5 -7 10 -4 6 3 10 8 10 11 0 2 -4 4 -10 4 -5 0
-10 -5 -10 -11z"/>
<path d="M10483 3093 c4 -6 25 -13 47 -15 49 -4 37 10 -15 19 -25 4 -36 3 -32
-4z"/>
<path d="M8948 3083 c6 -2 18 -2 25 0 6 3 1 5 -13 5 -14 0 -19 -2 -12 -5z"/>
<path d="M9968 3083 c7 -3 16 -2 19 1 4 3 -2 6 -13 5 -11 0 -14 -3 -6 -6z"/>
<path d="M10118 3083 c7 -3 16 -2 19 1 4 3 -2 6 -13 5 -11 0 -14 -3 -6 -6z"/>
<path d="M8897 3067 c-11 -29 -9 -43 4 -30 6 6 9 19 7 29 -3 18 -4 18 -11 1z"/>
<path d="M9495 3070 c-18 -8 -17 -9 8 -9 15 -1 27 4 27 9 0 12 -8 12 -35 0z"/>
<path d="M9370 3060 c0 -5 9 -10 20 -10 11 0 20 5 20 10 0 6 -9 10 -20 10 -11
0 -20 -4 -20 -10z"/>
<path d="M9617 3056 c-3 -8 -18 -16 -34 -19 -27 -4 -27 -4 4 -6 23 -1 35 5 43
19 6 11 7 20 1 20 -5 0 -11 -6 -14 -14z"/>
<path d="M10020 3060 c-9 -6 -10 -10 -3 -10 6 0 15 5 18 10 8 12 4 12 -15 0z"/>
<path d="M10105 3060 c-3 -6 1 -7 9 -4 18 7 21 14 7 14 -6 0 -13 -4 -16 -10z"/>
<path d="M10178 3063 c7 -3 16 -2 19 1 4 3 -2 6 -13 5 -11 0 -14 -3 -6 -6z"/>
<path d="M10450 3061 c0 -11 26 -22 34 -14 12 12 5 23 -14 23 -11 0 -20 -4
-20 -9z"/>
<path d="M9315 3050 c-3 -5 -1 -10 4 -10 6 0 11 5 11 10 0 6 -2 10 -4 10 -3 0
-8 -4 -11 -10z"/>
<path d="M9923 3053 c9 -2 23 -2 30 0 6 3 -1 5 -18 5 -16 0 -22 -2 -12 -5z"/>
<path d="M8668 3039 c-10 -6 -15 -16 -11 -26 5 -14 1 -15 -25 -10 -29 6 -31 5
-20 -12 14 -22 33 -17 65 17 34 37 29 54 -9 31z"/>
<path d="M8985 3040 c3 -5 11 -10 16 -10 6 0 7 5 4 10 -3 6 -11 10 -16 10 -6
0 -7 -4 -4 -10z"/>
<path d="M9088 3043 c7 -3 16 -2 19 1 4 3 -2 6 -13 5 -11 0 -14 -3 -6 -6z"/>
<path d="M9155 3040 c-3 -5 -1 -10 4 -10 6 0 11 5 11 10 0 6 -2 10 -4 10 -3 0
-8 -4 -11 -10z"/>
<path d="M9238 3043 c7 -3 16 -2 19 1 4 3 -2 6 -13 5 -11 0 -14 -3 -6 -6z"/>
<path d="M9728 3043 c7 -3 16 -2 19 1 4 3 -2 6 -13 5 -11 0 -14 -3 -6 -6z"/>
<path d="M9808 3043 c7 -3 16 -2 19 1 4 3 -2 6 -13 5 -11 0 -14 -3 -6 -6z"/>
<path d="M8798 3033 c6 -2 18 -2 25 0 6 3 1 5 -13 5 -14 0 -19 -2 -12 -5z"/>
<path d="M9678 3033 c7 -3 16 -2 19 1 4 3 -2 6 -13 5 -11 0 -14 -3 -6 -6z"/>
<path d="M10105 3030 l-30 -8 33 -1 c17 0 32 4 32 9 0 6 -1 9 -2 9 -2 -1 -16
-5 -33 -9z"/>
<path d="M9028 3013 c6 -2 18 -2 25 0 6 3 1 5 -13 5 -14 0 -19 -2 -12 -5z"/>
<path d="M9118 3013 c7 -3 16 -2 19 1 4 3 -2 6 -13 5 -11 0 -14 -3 -6 -6z"/>
<path d="M9460 3009 c0 -5 5 -7 10 -4 6 3 10 8 10 11 0 2 -4 4 -10 4 -5 0 -10
-5 -10 -11z"/>
<path d="M9688 3013 c7 -3 16 -2 19 1 4 3 -2 6 -13 5 -11 0 -14 -3 -6 -6z"/>
<path d="M9847 3009 c8 -8 16 -8 30 0 16 9 14 10 -11 11 -22 0 -27 -3 -19 -11z"/>
<path d="M7640 3006 c0 -3 20 -31 45 -62 25 -30 45 -64 45 -75 0 -11 4 -28 9
-38 13 -24 -1 -113 -18 -119 -10 -3 -12 0 -7 13 3 10 3 47 0 83 -5 47 -10 60
-15 47 -6 -16 -8 -13 -10 15 l-2 35 -7 -40 c-7 -43 -14 -35 -25 28 -3 20 -10
37 -15 37 -4 0 -13 12 -18 28 -8 21 -11 23 -12 7 -1 -18 -2 -18 -15 5 -8 14
-14 19 -15 11 0 -11 -3 -11 -15 -1 -9 7 -19 10 -23 6 -4 -4 1 -12 11 -17 9 -6
15 -14 13 -18 -5 -8 20 -23 57 -35 9 -3 17 -10 17 -16 0 -13 -17 -13 -25 0 -3
6 -11 10 -17 10 -7 0 -6 -6 2 -15 10 -12 9 -15 -4 -15 -9 0 -19 7 -22 15 -4 8
-12 15 -19 15 -7 0 -18 7 -25 15 -16 19 -79 19 -104 0 -11 -8 -14 -15 -7 -15
7 0 10 -4 7 -9 -3 -5 7 -11 22 -14 15 -2 41 -10 57 -16 17 -6 42 -13 58 -16
15 -3 27 -12 27 -20 0 -8 9 -23 20 -32 11 -10 20 -23 20 -30 0 -7 5 -13 11
-13 5 0 7 -4 4 -10 -4 -6 -22 2 -43 19 -20 16 -52 32 -69 36 -18 4 -33 11 -33
16 0 5 -4 9 -10 9 -5 0 -10 -5 -10 -11 0 -7 -8 -18 -17 -25 -16 -12 -14 -14
17 -15 19 -1 40 -2 47 -2 6 0 14 -13 17 -29 5 -26 10 -30 30 -26 16 3 23 1 20
-7 -3 -7 5 -15 18 -19 33 -8 40 -7 33 4 -3 6 -2 10 3 10 12 0 36 -29 30 -36
-3 -2 -38 -11 -79 -19 -41 -7 -92 -20 -114 -27 -43 -14 -115 -79 -115 -103 0
-21 18 -19 32 5 7 11 18 20 24 20 6 0 17 7 25 16 10 13 10 17 0 24 -9 5 -10
10 -2 14 6 4 11 2 11 -4 0 -6 4 -9 8 -6 18 11 9 -63 -9 -80 -10 -9 -19 -23
-19 -31 0 -7 -7 -16 -15 -19 -9 -4 -15 -11 -14 -18 1 -6 -2 -22 -8 -36 -15
-38 -25 -98 -13 -80 5 8 10 24 11 35 0 11 3 14 6 7 7 -17 59 56 68 96 3 18 16
37 26 43 19 10 20 8 13 -28 -3 -21 -18 -67 -31 -102 -19 -47 -24 -75 -20 -108
10 -90 32 -68 31 30 -1 40 1 63 3 52 10 -50 16 -45 37 30 21 80 47 138 66 150
12 7 3 -42 -10 -60 -4 -5 -10 -22 -14 -37 -3 -14 -9 -34 -13 -44 -4 -12 -3
-15 5 -10 8 5 12 -4 12 -29 0 -22 -4 -34 -10 -30 -5 3 -10 -1 -10 -9 0 -29 18
-16 34 24 9 22 16 59 16 81 0 32 3 39 18 37 14 -2 17 4 17 37 0 30 4 40 18 43
14 3 17 -4 17 -40 -1 -24 -7 -54 -15 -68 -9 -17 -10 -29 -3 -37 7 -8 6 -24 -2
-48 -15 -44 -8 -62 27 -76 22 -8 24 -12 13 -19 -9 -6 -16 -6 -18 0 -3 8 -47
-29 -47 -40 0 -3 -4 -11 -9 -18 -14 -22 2 -26 30 -7 l26 17 -7 -30 c-3 -17 -2
-33 4 -36 6 -4 -8 -30 -34 -62 -45 -55 -56 -84 -32 -84 9 0 8 -3 -2 -9 -7 -5
-11 -15 -9 -22 3 -10 8 -7 17 8 32 60 81 89 81 47 0 -8 -4 -12 -10 -9 -20 13
-9 -14 13 -31 13 -9 15 -14 5 -11 -11 4 -18 -1 -22 -16 -8 -32 -7 -75 2 -81 9
-5 22 -314 27 -611 2 -173 -9 -335 -25 -365 -9 -16 -7 -20 12 -24 49 -10 191
-14 177 -5 -8 5 -26 9 -41 9 -26 0 -26 0 -23 68 3 83 15 153 27 169 6 7 9 34
7 60 -1 26 0 55 3 63 3 8 11 60 17 115 6 55 16 138 21 185 6 47 15 148 20 225
5 77 13 156 16 175 4 19 6 45 5 57 -1 12 4 25 11 30 22 14 35 47 27 73 -4 14
-7 34 -8 45 -2 33 17 3 31 -50 7 -27 15 -52 18 -55 10 -10 31 -56 29 -66 -1
-5 0 -11 1 -14 5 -13 11 -39 18 -81 5 -25 15 -55 24 -67 l15 -23 7 32 c10 51
7 77 -9 87 -21 11 -13 54 11 63 17 7 17 8 -3 8 -13 1 -23 7 -23 16 0 8 -11 40
-25 71 -26 58 -26 80 -1 53 22 -23 96 -152 96 -167 0 -13 21 -66 41 -104 5
-10 9 -27 9 -38 0 -12 5 -18 10 -15 6 3 10 16 10 29 0 12 5 27 12 34 9 9 9 12
0 12 -7 0 -12 9 -12 19 0 10 -7 21 -15 25 -23 8 -18 26 8 27 21 0 21 1 2 8
-11 5 -26 6 -32 4 -9 -4 -13 6 -13 31 0 24 -7 43 -22 58 -13 13 -28 33 -35 45
-10 20 -9 22 18 21 18 -1 29 -6 29 -15 0 -9 -5 -11 -12 -7 -7 4 -10 4 -6 -1 4
-4 18 -13 30 -19 19 -10 84 -116 70 -116 -3 0 4 -9 15 -20 12 -10 24 -28 28
-40 6 -18 27 -30 24 -12 -4 25 4 32 39 33 l37 1 -40 11 c-24 8 -44 21 -50 35
-5 12 -13 22 -18 22 -5 0 -5 10 -2 23 7 22 7 22 -10 2 -16 -19 -16 -19 -11 12
4 23 2 32 -7 30 -6 -1 -13 8 -15 21 -2 12 -8 20 -13 17 -5 -4 -12 1 -15 9 -3
9 -10 16 -14 16 -9 0 -70 55 -70 64 0 13 24 5 52 -19 17 -14 33 -23 36 -21 3
3 -6 14 -19 25 l-24 20 25 1 25 2 -27 10 c-39 14 -36 32 4 24 40 -8 108 -52
108 -69 0 -7 -5 -18 -10 -23 -7 -7 -5 -17 5 -30 14 -18 14 -18 15 9 0 15 4 27
10 27 11 0 36 -42 29 -50 -2 -3 55 -6 126 -8 72 -2 134 -7 140 -13 12 -12 28
-12 21 0 -4 5 55 9 140 9 106 0 149 4 154 13 13 21 -11 37 -36 25 -20 -10 -21
-12 -6 -18 12 -4 7 -7 -15 -7 -27 -1 -31 2 -26 17 7 16 6 16 -11 0 -19 -19
-42 -24 -48 -9 -2 6 -21 5 -49 -1 -53 -12 -99 -4 -99 17 0 9 -9 15 -22 15 -21
-1 -21 -2 -5 -11 9 -6 15 -14 12 -20 -9 -14 -41 -11 -55 6 -11 13 -14 13 -27
0 -22 -22 -53 -19 -53 5 0 11 -4 20 -10 20 -5 0 -15 -9 -22 -20 -18 -28 -47
-25 -87 9 -22 18 -33 36 -33 54 0 14 -7 28 -14 31 -25 9 -15 25 19 29 28 4 27
4 -5 3 -21 -1 -38 1 -38 4 0 3 -12 6 -27 7 -15 0 -29 6 -31 12 -2 6 -8 9 -13
5 -5 -3 -11 1 -14 8 -5 13 -114 18 -165 7 -14 -4 -19 -4 -12 -2 7 3 10 9 7 14
-4 5 3 9 14 9 12 0 21 7 21 16 0 11 6 14 20 9 11 -4 20 -2 20 4 0 6 -6 11 -14
11 -8 0 -17 6 -19 13 -4 10 -6 10 -6 0 -1 -7 -10 -13 -21 -13 -11 0 -20 -4
-20 -10 0 -5 -6 -10 -14 -10 -17 0 -49 47 -41 60 9 15 25 12 25 -3 0 -9 12
-14 30 -15 19 0 30 4 30 13 0 8 10 17 23 21 12 4 32 18 45 31 20 22 28 24 60
18 72 -15 100 -15 106 1 3 8 1 12 -4 9 -5 -3 -23 1 -40 10 -17 9 -30 11 -30 5
0 -5 -22 -10 -50 -10 -27 0 -50 5 -50 10 0 6 -8 10 -17 10 -17 -1 -17 -1 0
-11 21 -12 22 -29 1 -29 -8 0 -13 -4 -10 -9 3 -5 -8 -11 -24 -13 -31 -5 -41 8
-14 19 8 3 13 11 10 18 -2 7 13 29 34 49 37 35 58 47 45 26 -3 -5 -1 -10 4
-10 6 0 11 5 11 12 0 6 18 28 41 49 23 21 38 43 34 48 -3 6 -1 11 6 11 7 0 10
2 7 5 -14 14 -183 -105 -183 -128 0 -12 -32 -33 -39 -26 -3 3 4 35 15 73 11
37 18 73 15 79 -2 7 -5 4 -5 -5 -1 -10 -8 -18 -16 -18 -8 0 -15 -6 -15 -14 0
-23 -20 -29 -38 -13 -9 8 -22 13 -28 10 -7 -2 -11 4 -10 14 0 10 -9 22 -21 28
-13 5 -23 13 -23 17 0 5 -7 8 -16 8 -13 0 -102 36 -113 46 -8 7 21 34 31 28 5
-3 4 -11 -2 -19 -10 -12 -6 -12 19 -2 17 6 31 16 31 22 0 14 57 69 89 85 13 7
57 14 98 16 89 4 113 10 113 30 0 10 -14 15 -47 16 -27 1 -61 2 -78 3 -16 1
-40 -5 -52 -12 -12 -7 -31 -13 -41 -13 -10 0 -29 -11 -42 -25 -18 -19 -26 -22
-32 -13 -11 18 -10 38 2 38 5 0 7 -7 3 -16 -3 -9 6 -4 21 10 14 15 26 30 26
35 0 4 18 14 40 21 21 7 37 17 34 21 -3 5 0 9 5 9 6 0 11 6 11 14 0 7 14 19
30 26 17 7 30 16 30 20 0 13 -49 -2 -66 -21 -9 -10 -25 -19 -34 -19 -10 0 -23
-7 -30 -15 -7 -8 -18 -15 -26 -15 -7 0 -16 -9 -19 -20 -3 -11 -12 -20 -18 -20
-7 0 -28 -32 -47 -71 -40 -83 -50 -92 -50 -46 0 18 -3 37 -7 41 -5 4 -9 17
-10 29 -2 12 -4 38 -6 57 -6 50 -33 97 -61 104 -13 3 -31 9 -40 12 -9 3 -16 3
-16 0z m-2 -158 c-3 -7 -13 -15 -24 -17 -16 -3 -17 -1 -5 13 16 19 34 21 29 4z
m297 -27 c-3 -6 -11 -11 -17 -11 -6 0 -6 6 2 15 14 17 26 13 15 -4z m-295 -11
c0 -5 -2 -10 -4 -10 -3 0 -8 5 -11 10 -3 6 -1 10 4 10 6 0 11 -4 11 -10z m60
-10 c0 -5 -4 -10 -10 -10 -5 0 -10 5 -10 10 0 6 5 10 10 10 6 0 10 -4 10 -10z
m-30 -20 c0 -5 -7 -10 -15 -10 -8 0 -15 5 -15 10 0 6 7 10 15 10 8 0 15 -4 15
-10z m-80 -36 c0 -2 -9 -4 -21 -4 -11 0 -18 4 -14 10 5 8 35 3 35 -6z m120 6
c0 -5 -4 -10 -10 -10 -5 0 -10 5 -10 10 0 6 5 10 10 10 6 0 10 -4 10 -10z
m-10 -52 c0 -16 -3 -19 -11 -11 -6 6 -8 16 -5 22 11 17 16 13 16 -11z m60 -48
c0 -6 -6 -13 -14 -16 -8 -3 -12 -13 -9 -22 2 -10 -5 -23 -18 -30 -21 -13 -21
-13 -14 15 4 15 8 34 8 41 0 7 6 11 14 8 7 -3 13 -1 13 4 0 6 5 10 10 10 6 0
10 -5 10 -10z m80 -5 c0 -8 -4 -15 -9 -15 -13 0 -22 16 -14 24 11 11 23 6 23
-9z m-200 -2 c0 -15 -15 -30 -30 -30 -8 -1 -33 -8 -55 -18 l-40 -17 22 23 c12
12 35 22 52 23 18 1 31 6 31 14 0 6 5 12 10 12 6 0 10 -3 10 -7z m237 -19 c-3
-3 -12 -4 -19 -1 -8 3 -5 6 6 6 11 1 17 -2 13 -5z m77 -106 c-8 -12 45 -58 61
-52 7 3 16 0 20 -5 3 -6 11 -9 16 -6 5 4 9 2 9 -3 0 -15 -31 -23 -45 -12 -9 8
-14 7 -18 -2 -3 -9 -9 -7 -21 7 -15 19 -15 18 -17 -20 -1 -39 -1 -39 -20 25
-11 36 -25 76 -31 90 -25 55 -19 63 16 25 20 -21 33 -42 30 -47z m-84 52 c0
-5 -4 -10 -10 -10 -5 0 -10 5 -10 10 0 6 5 10 10 10 6 0 10 -4 10 -10z m-60
-71 c0 -10 5 -20 10 -20 6 -1 16 -2 22 -3 11 -1 32 -80 25 -98 -3 -11 -67 23
-76 41 -5 9 -12 45 -15 81 l-7 65 21 -24 c11 -13 20 -32 20 -42z m-80 35 c0
-8 -5 -12 -10 -9 -6 4 -8 11 -5 16 9 14 15 11 15 -7z m151 -11 c7 -16 15 -31
17 -35 2 -3 -6 -4 -17 -1 -12 3 -21 8 -21 12 0 3 -3 16 -6 29 -9 31 10 28 27
-5z m-321 -28 c0 -8 -4 -15 -10 -15 -5 0 -10 7 -10 15 0 8 5 15 10 15 6 0 10
-7 10 -15z m190 -49 c0 -8 -4 -18 -10 -21 -5 -3 -10 3 -10 14 0 12 5 21 10 21
6 0 10 -6 10 -14z m190 -42 c0 -8 -4 -12 -10 -9 -5 3 -10 10 -10 16 0 5 5 9
10 9 6 0 10 -7 10 -16z m-186 -53 c3 -25 7 -55 8 -66 2 -12 -4 -21 -15 -23
-15 -3 -17 1 -11 22 4 17 2 26 -6 26 -6 0 -11 10 -10 23 1 12 2 29 1 37 -1 13
-2 13 -11 0 -11 -17 -23 -9 -15 11 3 8 16 15 29 15 21 2 24 -4 30 -45z m186 4
c0 -8 -4 -15 -10 -15 -5 0 -10 7 -10 15 0 8 5 15 10 15 6 0 10 -7 10 -15z
m-60 -15 c0 -5 -7 -10 -16 -10 -8 0 -12 5 -9 10 3 6 10 10 16 10 5 0 9 -4 9
-10z m-34 -37 c25 -19 32 -29 24 -37 -8 -8 -13 -8 -18 1 -5 7 -13 9 -21 3 -24
-14 -38 -1 -33 30 2 17 6 30 9 30 2 0 20 -12 39 -27z m108 -4 c9 14 46 15 46
1 0 -10 -48 -45 -54 -39 -2 2 -7 15 -10 29 -5 17 -4 21 2 11 7 -9 12 -10 16
-2z m-44 -14 c24 -13 24 -14 4 -15 -12 0 -27 7 -34 15 -16 19 -3 19 30 0z
m100 -14 c0 -12 -20 -25 -27 -18 -7 7 6 27 18 27 5 0 9 -4 9 -9z m135 -31 c3
-5 1 -10 -4 -10 -6 0 -11 5 -11 10 0 6 2 10 4 10 3 0 8 -4 11 -10z m-222 -13
c7 -19 -4 -68 -14 -61 -5 3 -9 17 -9 32 0 24 -1 25 -13 7 -10 -13 -16 -15 -21
-6 -10 15 11 41 34 41 10 0 20 -6 23 -13z m197 -2 c17 -9 30 -17 30 -19 0 -7
-66 0 -79 9 -10 5 -16 4 -19 -3 -2 -7 -8 -10 -13 -7 -13 8 13 34 34 35 10 0
31 -7 47 -15z m-320 -4 c0 -8 -52 -43 -65 -43 -5 0 -14 -6 -18 -14 -12 -22
-29 -17 -25 9 2 12 10 22 18 22 8 0 20 7 26 15 11 15 64 24 64 11z m170 -36
c-7 -8 -17 -15 -23 -15 -5 0 -2 9 8 20 21 23 35 19 15 -5z m80 -28 c0 -4 -8
-3 -19 2 -21 12 -32 5 -24 -15 4 -10 0 -12 -11 -8 -23 9 -20 29 6 46 20 14 24
14 35 -1 7 -9 13 -20 13 -24z m40 21 c0 -13 -23 -5 -28 10 -2 7 2 10 12 6 9
-3 16 -11 16 -16z m-306 -62 c-25 -51 -44 -71 -44 -46 0 18 64 124 68 112 2
-6 -9 -36 -24 -66z m86 35 c0 -11 -7 -32 -15 -48 -22 -43 -63 -183 -54 -188
11 -7 29 20 35 52 3 15 9 32 15 38 5 5 9 26 9 47 0 27 4 38 15 38 12 0 13 -9
8 -46 -5 -39 -3 -49 12 -60 18 -13 18 -14 -2 -14 -12 0 -25 -4 -28 -10 -3 -5
-2 -10 4 -10 32 0 -57 -774 -91 -783 -4 -1 -10 106 -13 238 -6 298 -14 486
-20 502 -2 7 4 36 15 65 10 29 19 46 20 38 2 -23 18 20 19 51 1 14 10 34 21
44 11 10 20 26 20 35 0 9 3 20 7 23 12 13 23 7 23 -12z m60 -47 c0 -17 -22
-14 -28 4 -2 7 3 12 12 12 9 0 16 -7 16 -16z m-210 -49 c0 -14 -4 -25 -10 -25
-11 0 -14 33 -3 43 11 11 13 8 13 -18z m195 -43 c0 -18 -20 -15 -23 4 -3 10 1
15 10 12 7 -3 13 -10 13 -16z m-185 -118 c0 -8 -7 -14 -15 -14 -15 0 -21 21
-9 33 10 9 24 -2 24 -19z m1 -77 c-13 -13 -26 -3 -16 12 3 6 11 8 17 5 6 -4 6
-10 -1 -17z m9 -26 c0 -17 -18 -21 -24 -6 -3 9 0 15 9 15 8 0 15 -4 15 -9z
m147 -93 c-3 -8 -6 -5 -6 6 -1 11 2 17 5 13 3 -3 4 -12 1 -19z m-147 -42 c0
-8 -4 -18 -10 -21 -5 -3 -10 3 -10 14 0 12 5 21 10 21 6 0 10 -6 10 -14z m-11
-88 c-1 -37 -2 -39 -9 -18 -12 36 -12 60 0 60 6 0 10 -19 9 -42z m31 -4 c0 -8
-4 -14 -10 -14 -5 0 -10 9 -10 21 0 11 5 17 10 14 6 -3 10 -13 10 -21z m110
-64 c0 -5 -5 -10 -11 -10 -5 0 -7 5 -4 10 3 6 8 10 11 10 2 0 4 -4 4 -10z
m-120 -20 c0 -5 -7 -10 -16 -10 -8 0 -12 5 -9 10 3 6 10 10 16 10 5 0 9 -4 9
-10z m-5 -40 c-3 -5 -10 -10 -16 -10 -5 0 -9 5 -9 10 0 6 7 10 16 10 8 0 12
-4 9 -10z m120 -30 c3 -5 1 -10 -4 -10 -6 0 -11 5 -11 10 0 6 2 10 4 10 3 0 8
-4 11 -10z m-5 -42 c0 -16 -3 -19 -11 -11 -6 6 -8 16 -5 22 11 17 16 13 16
-11z m-110 -18 c0 -5 -2 -10 -4 -10 -3 0 -8 5 -11 10 -3 6 -1 10 4 10 6 0 11
-4 11 -10z m10 -61 c0 -24 -23 -21 -28 4 -2 10 3 17 12 17 10 0 16 -9 16 -21z
m85 -9 c-3 -5 -11 -10 -16 -10 -6 0 -7 5 -4 10 3 6 11 10 16 10 6 0 7 -4 4
-10z m-95 -50 c-18 -11 -24 -6 -16 16 5 14 9 15 19 5 9 -9 9 -14 -3 -21z m10
-124 c0 -29 6 -58 12 -64 10 -10 10 -15 -2 -22 -13 -8 -13 -11 3 -22 13 -10
16 -21 11 -46 -8 -38 -21 -42 -30 -7 -3 14 -14 25 -23 26 -11 0 -9 3 7 9 26
11 27 14 9 32 -10 9 -12 29 -7 71 3 32 3 60 -2 63 -4 3 -8 12 -8 21 0 13 3 13
15 3 10 -8 15 -30 15 -64z"/>
<path d="M9255 3000 l-30 -8 32 -1 c17 0 35 4 38 9 7 11 3 11 -40 0z"/>
<path d="M9558 3003 c6 -2 18 -2 25 0 6 3 1 5 -13 5 -14 0 -19 -2 -12 -5z"/>
<path d="M10400 3000 c0 -15 21 -23 32 -12 6 6 2 11 -11 15 -12 3 -21 1 -21
-3z"/>
<path d="M8955 2990 c-3 -5 -1 -10 4 -10 6 0 11 5 11 10 0 6 -2 10 -4 10 -3 0
-8 -4 -11 -10z"/>
<path d="M9010 2990 c0 -5 5 -10 10 -10 6 0 10 5 10 10 0 6 -4 10 -10 10 -5 0
-10 -4 -10 -10z"/>
<path d="M10100 2996 c0 -2 7 -6 15 -10 8 -3 15 -1 15 4 0 6 -7 10 -15 10 -8
0 -15 -2 -15 -4z"/>
<path d="M10195 2990 c3 -5 8 -10 11 -10 2 0 4 5 4 10 0 6 -5 10 -11 10 -5 0
-7 -4 -4 -10z"/>
<path d="M9490 2980 l-45 -7 60 -1 c33 -1 67 3 75 8 18 11 -17 11 -90 0z"/>
<path d="M9630 2980 c8 -5 22 -10 30 -10 13 0 13 1 0 10 -8 5 -22 10 -30 10
-13 0 -13 -1 0 -10z"/>
<path d="M9970 2980 c0 -5 7 -10 15 -10 8 0 15 5 15 10 0 6 -7 10 -15 10 -8 0
-15 -4 -15 -10z"/>
<path d="M9360 2970 c0 -5 7 -10 15 -10 8 0 15 5 15 10 0 6 -7 10 -15 10 -8 0
-15 -4 -15 -10z"/>
<path d="M9730 2970 c0 -5 5 -10 10 -10 6 0 10 5 10 10 0 6 -4 10 -10 10 -5 0
-10 -4 -10 -10z"/>
<path d="M10430 2964 c0 -3 9 -15 20 -26 14 -16 23 -19 31 -11 8 8 2 15 -20
26 -17 9 -31 13 -31 11z"/>
<path d="M10540 2951 c0 -12 11 -23 30 -30 17 -5 30 -15 30 -20 0 -6 11 -11
24 -11 40 0 27 34 -15 38 -19 2 -38 8 -44 14 -7 7 1 8 27 4 20 -4 39 -3 42 2
3 5 -11 12 -32 16 -56 9 -62 8 -62 -13z"/>
<path d="M8610 2950 c0 -5 4 -10 9 -10 6 0 13 5 16 10 3 6 -1 10 -9 10 -9 0
-16 -4 -16 -10z"/>
<path d="M8685 2950 c-3 -5 -2 -10 4 -10 5 0 13 5 16 10 3 6 2 10 -4 10 -5 0
-13 -4 -16 -10z"/>
<path d="M8738 2953 c6 -2 18 -2 25 0 6 3 1 5 -13 5 -14 0 -19 -2 -12 -5z"/>
<path d="M8928 2953 c7 -3 16 -2 19 1 4 3 -2 6 -13 5 -11 0 -14 -3 -6 -6z"/>
<path d="M9858 2953 c6 -2 18 -2 25 0 6 3 1 5 -13 5 -14 0 -19 -2 -12 -5z"/>
<path d="M10055 2950 c-30 -8 -30 -8 8 -9 23 -1 36 3 32 9 -3 6 -7 9 -8 9 -1
-1 -15 -5 -32 -9z"/>
<path d="M10168 2953 c7 -3 16 -2 19 1 4 3 -2 6 -13 5 -11 0 -14 -3 -6 -6z"/>
<path d="M9187 2943 c-4 -3 -7 -11 -7 -17 0 -6 5 -5 12 2 6 6 9 14 7 17 -3 3
-9 2 -12 -2z"/>
<path d="M9775 2940 c-30 -8 -30 -8 8 -9 20 0 37 4 37 9 0 11 -2 11 -45 0z"/>
<path d="M8572 2928 c3 -7 13 -15 24 -17 16 -3 17 -1 5 13 -16 19 -34 21 -29
4z"/>
<path d="M8995 2930 c-3 -5 1 -10 9 -10 9 0 16 5 16 10 0 6 -4 10 -9 10 -6 0
-13 -4 -16 -10z"/>
<path d="M9308 2933 c6 -2 18 -2 25 0 6 3 1 5 -13 5 -14 0 -19 -2 -12 -5z"/>
<path d="M9578 2933 c12 -2 32 -2 45 0 12 2 2 4 -23 4 -25 0 -35 -2 -22 -4z"/>
<path d="M10745 2930 c3 -5 21 -10 38 -9 27 0 29 2 12 9 -28 12 -57 12 -50 0z"/>
<path d="M8860 2920 c-30 -6 -31 -8 -8 -9 14 0 32 -3 40 -6 7 -3 22 1 33 9 19
15 19 15 -5 14 -14 0 -41 -4 -60 -8z"/>
<path d="M9665 2910 c-3 -5 1 -10 10 -10 9 0 13 5 10 10 -3 6 -8 10 -10 10 -2
0 -7 -4 -10 -10z"/>
<path d="M9770 2910 c-12 -8 -11 -10 8 -10 12 0 22 5 22 10 0 13 -11 13 -30 0z"/>
<path d="M10128 2913 c12 -2 30 -2 40 0 9 3 -1 5 -23 4 -22 0 -30 -2 -17 -4z"/>
<path d="M8540 2895 c0 -8 -9 -15 -20 -15 -11 0 -20 -7 -20 -15 0 -8 -7 -15
-15 -15 -9 0 -21 -11 -27 -25 -6 -14 -22 -28 -34 -31 -26 -7 -54 -34 -35 -34
6 0 20 6 31 13 17 10 22 9 31 -3 8 -12 9 -10 4 8 -5 18 -2 25 14 29 17 4 19 8
10 19 -9 11 -6 14 20 14 20 0 31 5 31 14 0 8 7 16 15 20 17 6 21 36 5 36 -5 0
-10 -7 -10 -15z"/>
<path d="M8640 2900 c0 -5 4 -10 9 -10 6 0 13 5 16 10 3 6 -1 10 -9 10 -9 0
-16 -4 -16 -10z"/>
<path d="M9300 2899 c0 -5 5 -7 10 -4 6 3 10 8 10 11 0 2 -4 4 -10 4 -5 0 -10
-5 -10 -11z"/>
<path d="M9438 2903 c7 -3 16 -2 19 1 4 3 -2 6 -13 5 -11 0 -14 -3 -6 -6z"/>
<path d="M9480 2900 c0 -5 5 -10 10 -10 6 0 10 5 10 10 0 6 -4 10 -10 10 -5 0
-10 -4 -10 -10z"/>
<path d="M9568 2898 c9 -9 15 -9 24 0 9 9 7 12 -12 12 -19 0 -21 -3 -12 -12z"/>
<path d="M10506 2894 c-9 -24 -8 -26 21 -22 37 4 45 38 10 38 -14 0 -28 -7
-31 -16z"/>
<path d="M10700 2894 c0 -11 -6 -14 -20 -9 -11 4 -20 2 -20 -4 0 -6 -11 -13
-25 -17 -14 -3 -22 -10 -19 -15 3 -5 -12 -9 -32 -9 -28 0 -35 -3 -27 -11 13
-13 93 -2 93 13 0 6 11 7 26 4 21 -6 25 -4 21 8 -7 18 20 36 55 36 18 0 20 2
8 10 -24 15 -60 12 -60 -6z"/>
<path d="M9078 2893 c6 -2 18 -2 25 0 6 3 1 5 -13 5 -14 0 -19 -2 -12 -5z"/>
<path d="M9178 2893 c12 -2 30 -2 40 0 9 3 -1 5 -23 4 -22 0 -30 -2 -17 -4z"/>
<path d="M8908 2883 c6 -2 18 -2 25 0 6 3 1 5 -13 5 -14 0 -19 -2 -12 -5z"/>
<path d="M10771 2876 c-6 -7 -8 -16 -4 -19 3 -4 -7 -7 -23 -8 l-29 -1 29 -8
c29 -9 56 5 56 29 0 17 -17 21 -29 7z"/>
<path d="M7938 2873 c7 -3 16 -2 19 1 4 3 -2 6 -13 5 -11 0 -14 -3 -6 -6z"/>
<path d="M8586 2855 l-16 -25 42 1 c31 2 35 3 15 6 -22 4 -27 8 -22 24 9 26 0
24 -19 -6z"/>
<path d="M8635 2870 c-3 -5 -1 -10 4 -10 6 0 11 5 11 10 0 6 -2 10 -4 10 -3 0
-8 -4 -11 -10z"/>
<path d="M9785 2870 l-40 -7 43 -2 c23 0 42 4 42 9 0 6 -1 9 -2 9 -2 -1 -21
-5 -43 -9z"/>
<path d="M10130 2870 c-11 -8 -7 -9 15 -4 37 8 45 14 19 14 -10 0 -26 -5 -34
-10z"/>
<path d="M8941 2861 c-9 -6 -10 -11 -2 -15 6 -4 17 -4 24 1 6 4 22 6 35 4 12
-1 22 2 22 8 0 13 -59 14 -79 2z"/>
<path d="M9090 2855 c-10 -12 -10 -15 4 -15 9 0 16 7 16 15 0 8 -2 15 -4 15
-2 0 -9 -7 -16 -15z"/>
<path d="M9643 2850 c5 -30 11 -31 24 -4 10 21 9 24 -8 24 -13 0 -18 -6 -16
-20z"/>
<path d="M9958 2863 c6 -2 18 -2 25 0 6 3 1 5 -13 5 -14 0 -19 -2 -12 -5z"/>
<path d="M10568 2863 c6 -2 18 -2 25 0 6 3 1 5 -13 5 -14 0 -19 -2 -12 -5z"/>
<path d="M8865 2850 c3 -5 8 -10 11 -10 2 0 4 5 4 10 0 6 -5 10 -11 10 -5 0
-7 -4 -4 -10z"/>
<path d="M10241 2834 c0 -11 3 -14 6 -6 3 7 2 16 -1 19 -3 4 -6 -2 -5 -13z"/>
<path d="M9580 2830 l-25 -8 28 -1 c15 -1 27 4 27 9 0 6 -1 10 -2 9 -2 -1 -14
-5 -28 -9z"/>
<path d="M9818 2833 c12 -2 32 -2 45 0 12 2 2 4 -23 4 -25 0 -35 -2 -22 -4z"/>
<path d="M7380 2823 c-20 -7 -50 -34 -50 -45 0 -17 40 -7 69 18 17 14 31 21
31 16 0 -6 -6 -13 -12 -15 -7 -3 -8 -6 -3 -6 6 0 21 8 35 19 l25 20 -40 -1
c-22 0 -47 -3 -55 -6z"/>
<path d="M8750 2821 c0 -6 5 -13 10 -16 6 -3 10 1 10 9 0 9 -4 16 -10 16 -5 0
-10 -4 -10 -9z"/>
<path d="M8970 2820 l-25 -8 28 -1 c15 -1 27 4 27 9 0 6 -1 10 -2 9 -2 -1 -14
-5 -28 -9z"/>
<path d="M9099 2823 c-28 -7 -6 -62 25 -63 5 0 3 7 -4 15 -6 8 -9 23 -5 35 3
11 5 19 3 19 -2 -1 -10 -3 -19 -6z"/>
<path d="M9165 2820 c3 -5 8 -10 11 -10 2 0 4 5 4 10 0 6 -5 10 -11 10 -5 0
-7 -4 -4 -10z"/>
<path d="M9275 2820 c-3 -5 1 -10 9 -10 9 0 16 5 16 10 0 6 -4 10 -9 10 -6 0
-13 -4 -16 -10z"/>
<path d="M9455 2820 c-3 -5 -1 -10 4 -10 6 0 11 5 11 10 0 6 -2 10 -4 10 -3 0
-8 -4 -11 -10z"/>
<path d="M9758 2823 c6 -2 18 -2 25 0 6 3 1 5 -13 5 -14 0 -19 -2 -12 -5z"/>
<path d="M10665 2820 c3 -5 12 -10 20 -10 8 0 17 5 20 10 4 6 -5 10 -20 10
-15 0 -24 -4 -20 -10z"/>
<path d="M8685 2803 c-18 -14 -18 -15 -2 -9 10 3 23 6 28 6 5 0 9 5 9 10 0 14
-12 12 -35 -7z"/>
<path d="M9976 2805 c-22 -17 -17 -29 8 -19 9 3 16 12 16 20 0 17 0 17 -24 -1z"/>
<path d="M10725 2810 c3 -5 8 -10 11 -10 2 0 4 5 4 10 0 6 -5 10 -11 10 -5 0
-7 -4 -4 -10z"/>
<path d="M10753 2802 c-3 -12 -12 -22 -19 -22 -8 0 -14 -4 -14 -10 0 -5 9 -10
20 -10 20 0 40 44 26 58 -4 3 -9 -4 -13 -16z"/>
<path d="M10155 2800 c-3 -5 -2 -10 4 -10 5 0 13 5 16 10 3 6 2 10 -4 10 -5 0
-13 -4 -16 -10z"/>
<path d="M8519 2786 c10 -11 8 -17 -6 -26 -17 -10 -17 -11 2 -8 24 4 31 48 7
48 -11 0 -12 -3 -3 -14z"/>
<path d="M9675 2790 c-3 -5 -1 -10 4 -10 6 0 11 5 11 10 0 6 -2 10 -4 10 -3 0
-8 -4 -11 -10z"/>
<path d="M9868 2793 c12 -2 30 -2 40 0 9 3 -1 5 -23 4 -22 0 -30 -2 -17 -4z"/>
<path d="M10595 2790 c3 -5 26 -10 51 -10 24 0 44 5 44 10 0 6 -23 10 -51 10
-31 0 -48 -4 -44 -10z"/>
<path d="M8804 2775 c-19 -14 -18 -14 4 -15 13 0 22 6 22 15 0 19 -1 19 -26 0z"/>
<path d="M8870 2775 c-8 -9 -8 -15 -2 -15 12 0 26 19 19 26 -2 2 -10 -2 -17
-11z"/>
<path d="M9425 2779 c-4 -6 -5 -13 -2 -16 7 -7 27 6 27 18 0 12 -17 12 -25 -2z"/>
<path d="M9487 2783 c-4 -3 -7 -11 -7 -17 0 -6 5 -5 12 2 6 6 9 14 7 17 -3 3
-9 2 -12 -2z"/>
<path d="M8625 2770 c-3 -5 3 -10 15 -10 12 0 18 5 15 10 -3 6 -10 10 -15 10
-5 0 -12 -4 -15 -10z"/>
<path d="M8735 2770 c-3 -5 1 -10 10 -10 9 0 13 5 10 10 -3 6 -8 10 -10 10 -2
0 -7 -4 -10 -10z"/>
<path d="M9328 2773 c6 -2 18 -2 25 0 6 3 1 5 -13 5 -14 0 -19 -2 -12 -5z"/>
<path d="M9566 2755 c-3 -8 -1 -17 3 -20 5 -3 11 2 15 10 3 8 1 17 -3 20 -5 3
-11 -2 -15 -10z"/>
<path d="M9750 2755 c-8 -9 -8 -15 -2 -15 12 0 26 19 19 26 -2 2 -10 -2 -17
-11z"/>
<path d="M9825 2760 c-4 -6 -3 -16 3 -22 13 -13 23 4 13 21 -7 10 -10 10 -16
1z"/>
<path d="M10630 2755 c-11 -13 -8 -15 15 -15 23 0 26 2 15 15 -7 8 -14 15 -15
15 -1 0 -8 -7 -15 -15z"/>
<path d="M9645 2750 c-3 -5 -1 -10 4 -10 6 0 11 5 11 10 0 6 -2 10 -4 10 -3 0
-8 -4 -11 -10z"/>
<path d="M9695 2750 c-3 -5 -2 -10 4 -10 5 0 13 5 16 10 3 6 2 10 -4 10 -5 0
-13 -4 -16 -10z"/>
<path d="M9948 2753 c6 -2 18 -2 25 0 6 3 1 5 -13 5 -14 0 -19 -2 -12 -5z"/>
<path d="M9320 2740 c-12 -8 -9 -10 13 -10 16 0 26 4 22 10 -8 12 -16 12 -35
0z"/>
<path d="M9470 2740 c0 -5 7 -7 15 -4 8 4 15 8 15 10 0 2 -7 4 -15 4 -8 0 -15
-4 -15 -10z"/>
<path d="M8340 2730 c-22 -7 -21 -8 13 -9 20 -1 37 4 37 9 0 11 -14 11 -50 0z"/>
<path d="M8828 2733 c7 -3 16 -2 19 1 4 3 -2 6 -13 5 -11 0 -14 -3 -6 -6z"/>
<path d="M8970 2730 c0 -5 4 -10 9 -10 6 0 13 5 16 10 3 6 -1 10 -9 10 -9 0
-16 -4 -16 -10z"/>
<path d="M9098 2733 c7 -3 16 -2 19 1 4 3 -2 6 -13 5 -11 0 -14 -3 -6 -6z"/>
<path d="M9408 2733 c7 -3 16 -2 19 1 4 3 -2 6 -13 5 -11 0 -14 -3 -6 -6z"/>
<path d="M7875 2721 c3 -6 -3 -14 -12 -20 -12 -6 -15 -13 -8 -19 6 -6 18 1 33
19 l24 29 -22 0 c-12 0 -19 -4 -15 -9z"/>
<path d="M8608 2723 c7 -3 16 -2 19 1 4 3 -2 6 -13 5 -11 0 -14 -3 -6 -6z"/>
<path d="M10026 2721 c-19 -7 -19 -8 2 -13 15 -4 22 -2 22 8 0 8 -1 14 -2 13
-2 0 -12 -4 -22 -8z"/>
<path d="M10665 2720 c-3 -5 1 -10 9 -10 9 0 16 5 16 10 0 6 -4 10 -9 10 -6 0
-13 -4 -16 -10z"/>
<path d="M9270 2710 c0 -5 4 -10 9 -10 6 0 13 5 16 10 3 6 -1 10 -9 10 -9 0
-16 -4 -16 -10z"/>
<path d="M9325 2710 c-3 -5 -1 -10 4 -10 6 0 11 5 11 10 0 6 -2 10 -4 10 -3 0
-8 -4 -11 -10z"/>
<path d="M9850 2710 c-23 -7 -23 -8 -3 -9 12 -1 25 4 28 9 3 6 5 10 3 9 -2 -1
-14 -5 -28 -9z"/>
<path d="M10120 2709 c0 -5 5 -7 10 -4 6 3 10 8 10 11 0 2 -4 4 -10 4 -5 0
-10 -5 -10 -11z"/>
<path d="M8307 2686 c-15 -12 -27 -27 -27 -33 0 -14 28 -25 35 -13 3 4 -1 10
-7 12 -8 3 -2 11 14 19 16 8 24 19 20 26 -5 8 -15 4 -35 -11z"/>
<path d="M8750 2696 c0 -9 5 -16 10 -16 6 0 10 4 10 9 0 6 -4 13 -10 16 -5 3
-10 -1 -10 -9z"/>
<path d="M8920 2699 c0 -5 5 -7 10 -4 6 3 10 8 10 11 0 2 -4 4 -10 4 -5 0 -10
-5 -10 -11z"/>
<path d="M9578 2703 c7 -3 16 -2 19 1 4 3 -2 6 -13 5 -11 0 -14 -3 -6 -6z"/>
<path d="M9729 2701 c7 -5 10 -14 7 -20 -4 -6 -3 -11 1 -11 5 0 14 9 21 20 11
18 10 20 -15 20 -20 0 -24 -3 -14 -9z"/>
<path d="M11072 2695 c-11 -13 -8 -15 18 -15 38 0 39 -15 1 -28 -21 -7 -31 -7
-33 0 -2 6 -13 8 -23 6 -16 -4 -13 -8 18 -21 20 -9 37 -21 37 -26 0 -16 26
-13 40 4 7 8 23 15 36 15 30 0 31 12 2 25 -13 6 -27 20 -33 33 -11 25 -43 29
-63 7z m58 -65 c0 -13 -11 -13 -30 0 -12 8 -11 10 8 10 12 0 22 -4 22 -10z"/>
<path d="M8366 2685 c-3 -9 0 -15 9 -15 8 0 15 7 15 15 0 8 -4 15 -9 15 -5 0
-11 -7 -15 -15z"/>
<path d="M8470 2690 c0 -5 5 -10 11 -10 5 0 7 5 4 10 -3 6 -8 10 -11 10 -2 0
-4 -4 -4 -10z"/>
<path d="M8808 2689 c12 -12 92 -15 92 -4 0 5 -22 10 -49 10 -28 0 -47 -3 -43
-6z"/>
<path d="M9178 2693 c7 -3 16 -2 19 1 4 3 -2 6 -13 5 -11 0 -14 -3 -6 -6z"/>
<path d="M8605 2680 c3 -5 13 -10 21 -10 8 0 14 5 14 10 0 6 -9 10 -21 10 -11
0 -17 -4 -14 -10z"/>
<path d="M9797 2683 c-4 -3 -7 -19 -7 -35 0 -27 2 -28 48 -28 34 0 43 3 32 10
-8 5 -28 10 -44 10 -25 0 -27 3 -22 25 6 25 5 30 -7 18z"/>
<path d="M9860 2680 c-40 -6 -36 -7 32 -8 42 -1 80 3 83 8 7 11 -43 11 -115 0z"/>
<path d="M10070 2680 c-11 -7 -1 -10 35 -9 37 0 45 3 30 9 -27 12 -47 12 -65
0z"/>
<path d="M10782 2674 c-25 -17 -21 -34 8 -34 14 0 17 5 13 23 l-6 22 25 -22
c13 -13 35 -23 49 -22 l24 0 -25 12 c-14 6 -29 17 -33 24 -11 17 -28 16 -55
-3z"/>
<path d="M9133 2665 c-9 -25 4 -29 17 -6 7 15 7 21 0 21 -6 0 -13 -7 -17 -15z"/>
<path d="M9374 2665 c-17 -13 -17 -14 -2 -15 9 0 20 5 23 11 11 17 0 20 -21 4z"/>
<path d="M9500 2670 c0 -13 70 -13 90 0 11 7 0 10 -37 10 -29 0 -53 -4 -53
-10z"/>
<path d="M9648 2673 c7 -3 16 -2 19 1 4 3 -2 6 -13 5 -11 0 -14 -3 -6 -6z"/>
<path d="M10198 2673 c6 -2 18 -2 25 0 6 3 1 5 -13 5 -14 0 -19 -2 -12 -5z"/>
<path d="M10258 2673 c6 -2 18 -2 25 0 6 3 1 5 -13 5 -14 0 -19 -2 -12 -5z"/>
<path d="M8415 2650 c-18 -8 -17 -9 8 -9 15 -1 27 4 27 9 0 12 -8 12 -35 0z"/>
<path d="M8575 2650 c3 -5 10 -10 16 -10 5 0 9 5 9 10 0 6 -7 10 -16 10 -8 0
-12 -4 -9 -10z"/>
<path d="M9180 2649 c0 -5 5 -7 10 -4 6 3 10 8 10 11 0 2 -4 4 -10 4 -5 0 -10
-5 -10 -11z"/>
<path d="M9310 2650 c-13 -8 -12 -10 3 -10 9 0 17 5 17 10 0 12 -1 12 -20 0z"/>
<path d="M8898 2643 c7 -3 16 -2 19 1 4 3 -2 6 -13 5 -11 0 -14 -3 -6 -6z"/>
<path d="M9038 2643 c6 -2 18 -2 25 0 6 3 1 5 -13 5 -14 0 -19 -2 -12 -5z"/>
<path d="M9750 2635 c0 -8 4 -15 10 -15 5 0 7 7 4 15 -4 8 -8 15 -10 15 -2 0
-4 -7 -4 -15z"/>
<path d="M9965 2640 c3 -5 19 -10 36 -10 16 0 29 5 29 10 0 6 -16 10 -36 10
-21 0 -33 -4 -29 -10z"/>
<path d="M10121 2634 c0 -11 3 -14 6 -6 3 7 2 16 -1 19 -3 4 -6 -2 -5 -13z"/>
<path d="M10167 2643 c-13 -12 -7 -23 12 -23 10 0 24 7 31 15 10 13 9 15 -12
15 -14 0 -28 -3 -31 -7z"/>
<path d="M8808 2633 c6 -2 18 -2 25 0 6 3 1 5 -13 5 -14 0 -19 -2 -12 -5z"/>
<path d="M10265 2630 c3 -5 15 -10 26 -10 10 0 19 5 19 10 0 6 -12 10 -26 10
-14 0 -23 -4 -19 -10z"/>
<path d="M10906 2631 c-10 -15 5 -41 23 -41 20 0 41 19 41 37 0 15 -56 18 -64
4z m42 -20 c3 -8 -1 -12 -9 -9 -7 2 -15 10 -17 17 -3 8 1 12 9 9 7 -2 15 -10
17 -17z"/>
<path d="M9500 2620 c8 -5 26 -10 39 -10 32 0 24 6 -19 14 -25 4 -31 3 -20 -4z"/>
<path d="M9610 2620 c-24 -8 -23 -8 8 -9 17 -1 32 4 32 9 0 11 -5 11 -40 0z"/>
<path d="M9670 2615 c-8 -9 -8 -15 -2 -15 12 0 26 19 19 26 -2 2 -10 -2 -17
-11z"/>
<path d="M9903 2623 c9 -2 23 -2 30 0 6 3 -1 5 -18 5 -16 0 -22 -2 -12 -5z"/>
<path d="M10686 2604 l-28 -25 36 3 c38 2 39 3 28 30 -6 15 -10 14 -36 -8z"/>
<path d="M10745 2622 c6 -5 37 -13 70 -17 39 -4 56 -3 50 3 -5 5 -37 13 -70
17 -39 4 -56 3 -50 -3z"/>
<path d="M8473 2613 c9 -2 23 -2 30 0 6 3 -1 5 -18 5 -16 0 -22 -2 -12 -5z"/>
<path d="M8570 2610 c0 -12 8 -12 35 0 18 8 17 9 -7 9 -16 1 -28 -3 -28 -9z"/>
<path d="M9161 2611 c-8 -5 -20 -7 -27 -4 -6 2 -15 0 -19 -6 -4 -7 4 -11 19
-11 31 0 56 9 56 21 0 11 -11 11 -29 0z"/>
<path d="M9268 2613 c6 -2 18 -2 25 0 6 3 1 5 -13 5 -14 0 -19 -2 -12 -5z"/>
<path d="M9710 2609 c0 -5 5 -7 10 -4 6 3 10 8 10 11 0 2 -4 4 -10 4 -5 0 -10
-5 -10 -11z"/>
<path d="M11193 2613 c-7 -3 -13 -11 -13 -19 0 -8 -10 -14 -22 -14 -95 -1 -95
-1 -68 -10 14 -4 37 -8 53 -9 33 -1 36 -18 5 -24 -21 -4 -20 -4 3 -6 15 0 32
-8 39 -16 7 -8 19 -15 28 -15 13 0 13 2 0 18 -22 25 -29 62 -13 62 8 0 16 4
19 9 8 12 -16 29 -31 24z"/>
<path d="M8298 2603 c7 -3 16 -2 19 1 4 3 -2 6 -13 5 -11 0 -14 -3 -6 -6z"/>
<path d="M8645 2590 c4 -6 11 -8 16 -5 14 9 11 15 -7 15 -8 0 -12 -5 -9 -10z"/>
<path d="M8753 2593 c9 -2 25 -2 35 0 9 3 1 5 -18 5 -19 0 -27 -2 -17 -5z"/>
<path d="M8878 2593 c6 -2 18 -2 25 0 6 3 1 5 -13 5 -14 0 -19 -2 -12 -5z"/>
<path d="M8980 2590 c0 -13 11 -13 30 0 12 8 11 10 -7 10 -13 0 -23 -4 -23
-10z"/>
<path d="M9571 2584 c0 -11 3 -14 6 -6 3 7 2 16 -1 19 -3 4 -6 -2 -5 -13z"/>
<path d="M9750 2590 c-36 -6 -27 -7 45 -8 58 0 83 2 70 8 -23 10 -51 10 -115
0z"/>
<path d="M10040 2589 c0 -5 9 -9 20 -9 11 0 20 2 20 4 0 2 -9 6 -20 9 -11 3
-20 1 -20 -4z"/>
<path d="M10230 2590 c-11 -7 -7 -10 17 -10 17 0 35 5 38 10 8 13 -35 13 -55
0z"/>
<path d="M8370 2578 c0 -14 30 -22 41 -11 7 7 2 12 -15 15 -14 3 -26 1 -26 -4z"/>
<path d="M8514 2575 c-18 -14 -18 -14 3 -15 23 0 39 15 25 24 -5 3 -18 -1 -28
-9z"/>
<path d="M9918 2583 c12 -2 30 -2 40 0 9 3 -1 5 -23 4 -22 0 -30 -2 -17 -4z"/>
<path d="M10113 2583 c15 -2 37 -2 50 0 12 2 0 4 -28 4 -27 0 -38 -2 -22 -4z"/>
<path d="M10747 2576 c-4 -9 -15 -16 -25 -16 -11 0 -25 -7 -32 -15 -11 -13
-10 -18 8 -31 12 -8 19 -21 16 -28 -8 -20 13 -29 44 -21 l27 8 -24 6 c-14 4
-27 13 -29 20 -3 9 2 11 16 7 11 -4 23 -2 27 4 4 6 -7 10 -29 10 -45 0 -55 16
-14 24 22 4 39 1 56 -11 65 -46 112 -60 112 -32 0 5 -16 9 -35 9 -19 0 -35 4
-35 10 0 6 37 8 98 5 67 -3 92 -2 82 5 -11 7 -2 8 29 4 35 -6 43 -4 39 7 -6
17 -68 22 -86 7 -17 -15 -122 -1 -136 17 -6 8 -32 18 -57 21 -37 5 -47 3 -52
-10z m93 -16 c11 -7 4 -10 -27 -10 -23 0 -45 5 -48 10 -8 13 55 13 75 0z"/>
<path d="M8260 2570 c0 -5 5 -10 10 -10 6 0 10 5 10 10 0 6 -4 10 -10 10 -5 0
-10 -4 -10 -10z"/>
<path d="M8318 2573 c7 -3 16 -2 19 1 4 3 -2 6 -13 5 -11 0 -14 -3 -6 -6z"/>
<path d="M9313 2573 c15 -2 37 -2 50 0 12 2 0 4 -28 4 -27 0 -38 -2 -22 -4z"/>
<path d="M9455 2570 c-3 -5 -2 -10 4 -10 5 0 13 5 16 10 3 6 2 10 -4 10 -5 0
-13 -4 -16 -10z"/>
<path d="M8918 2563 c7 -3 16 -2 19 1 4 3 -2 6 -13 5 -11 0 -14 -3 -6 -6z"/>
<path d="M9038 2563 c18 -2 45 -2 60 0 15 2 0 4 -33 4 -33 0 -45 -2 -27 -4z"/>
<path d="M9180 2560 c0 -5 14 -7 33 -3 45 8 47 13 4 13 -20 0 -37 -4 -37 -10z"/>
<path d="M10635 2560 c4 -6 11 -8 16 -5 14 9 11 15 -7 15 -8 0 -12 -5 -9 -10z"/>
<path d="M10935 2560 c4 -6 11 -8 16 -5 14 9 11 15 -7 15 -8 0 -12 -5 -9 -10z"/>
<path d="M11237 2551 c-5 -20 19 -55 45 -64 20 -7 14 -37 -8 -37 -8 0 -14 -7
-14 -15 0 -10 -10 -15 -34 -15 -19 0 -38 -4 -41 -10 -4 -6 6 -10 23 -10 21 0
31 -6 35 -20 3 -13 14 -20 30 -20 14 0 32 -3 41 -6 9 -3 16 -1 16 5 0 6 -9 11
-19 11 -51 0 -64 22 -32 58 18 22 71 31 71 12 0 -5 -5 -10 -12 -10 -9 0 -9 -3
-1 -11 6 -6 9 -18 6 -25 -3 -8 -1 -14 5 -14 5 0 12 -9 15 -20 3 -11 12 -20 21
-20 9 0 16 -8 16 -20 0 -11 -4 -20 -10 -20 -5 0 -10 5 -10 10 0 6 -5 10 -10
10 -7 0 -7 -6 0 -20 13 -24 36 -26 44 -4 5 13 9 14 21 4 20 -17 19 -30 -2 -30
-24 0 -4 -17 30 -25 22 -6 26 -4 21 9 -3 9 -1 16 5 16 6 0 11 -8 12 -17 0 -11
3 -13 6 -5 2 6 20 12 39 12 47 0 43 17 -6 25 -25 4 -40 12 -40 21 0 14 -5 16
-50 17 -24 0 -24 0 -2 4 35 7 8 33 -34 33 -30 0 -34 3 -34 25 0 14 5 25 10 25
6 0 10 -9 10 -20 0 -11 5 -20 11 -20 20 0 3 35 -24 48 -15 7 -27 20 -27 28 0
7 -7 14 -15 14 -8 0 -19 9 -25 20 -6 11 -20 20 -32 20 -16 0 -19 5 -16 24 6
30 -27 56 -35 27z"/>
<path d="M8700 2550 c0 -5 4 -10 9 -10 6 0 13 5 16 10 3 6 -1 10 -9 10 -9 0
-16 -4 -16 -10z"/>
<path d="M8465 2540 c-3 -6 5 -10 19 -10 14 0 28 5 31 10 3 6 -5 10 -19 10
-14 0 -28 -4 -31 -10z"/>
<path d="M8605 2540 c-3 -5 -1 -10 4 -10 6 0 11 5 11 10 0 6 -2 10 -4 10 -3 0
-8 -4 -11 -10z"/>
<path d="M8855 2540 c-25 -5 -27 -7 -12 -13 29 -11 129 -9 122 3 -3 6 -17 7
-31 4 -13 -3 -30 -2 -37 3 -6 5 -25 7 -42 3z"/>
<path d="M9393 2543 c15 -2 39 -2 55 0 15 2 2 4 -28 4 -30 0 -43 -2 -27 -4z"/>
<path d="M9523 2539 c14 -8 22 -8 30 0 8 8 3 11 -18 11 -26 -1 -28 -2 -12 -11z"/>
<path d="M9593 2538 c-26 -34 -22 -44 16 -39 33 5 34 6 8 9 -23 3 -26 6 -16
18 6 8 10 17 7 19 -3 3 -10 0 -15 -7z"/>
<path d="M9798 2543 c7 -3 16 -2 19 1 4 3 -2 6 -13 5 -11 0 -14 -3 -6 -6z"/>
<path d="M9893 2543 c9 -2 25 -2 35 0 9 3 1 5 -18 5 -19 0 -27 -2 -17 -5z"/>
<path d="M10028 2543 c7 -3 16 -2 19 1 4 3 -2 6 -13 5 -11 0 -14 -3 -6 -6z"/>
<path d="M10150 2539 c0 -5 5 -7 10 -4 6 3 10 8 10 11 0 2 -4 4 -10 4 -5 0
-10 -5 -10 -11z"/>
<path d="M8217 2533 c-13 -13 -7 -21 13 -16 11 3 17 9 14 14 -6 11 -18 12 -27
2z"/>
<path d="M8265 2530 c4 -6 11 -8 16 -5 14 9 11 15 -7 15 -8 0 -12 -5 -9 -10z"/>
<path d="M9228 2533 c7 -3 16 -2 19 1 4 3 -2 6 -13 5 -11 0 -14 -3 -6 -6z"/>
<path d="M8642 2514 c-11 -12 -6 -14 33 -14 25 0 45 5 45 10 0 6 -11 8 -26 4
-14 -4 -29 -2 -33 4 -4 6 -11 5 -19 -4z"/>
<path d="M9299 2506 c6 -7 29 -10 58 -7 54 4 50 7 -20 14 -35 3 -45 2 -38 -7z"/>
<path d="M9415 2511 c-4 -7 4 -11 19 -11 19 0 25 -6 28 -25 2 -20 6 -22 18
-14 11 8 12 12 3 16 -7 2 -13 11 -13 19 0 8 -4 14 -9 14 -5 0 -16 3 -24 6 -8
3 -18 1 -22 -5z"/>
<path d="M9710 2510 c36 -12 72 -12 65 0 -3 6 -25 10 -48 9 -36 -1 -38 -2 -17
-9z"/>
<path d="M10160 2509 c0 -5 5 -7 10 -4 6 3 10 8 10 11 0 2 -4 4 -10 4 -5 0
-10 -5 -10 -11z"/>
<path d="M10235 2510 l-40 -7 45 -1 c25 -1 52 3 60 8 12 8 11 9 -5 8 -11 0
-38 -4 -60 -8z"/>
<path d="M10492 2509 c5 -16 58 -25 58 -10 0 6 -6 11 -14 11 -8 0 -22 3 -32 7
-12 4 -15 2 -12 -8z"/>
<path d="M11060 2511 c8 -6 27 -11 43 -11 17 0 27 -5 27 -15 0 -10 9 -15 28
-14 17 1 21 3 9 6 -14 4 -16 8 -6 19 10 12 4 14 -34 14 -25 0 -54 3 -64 6 -15
5 -15 4 -3 -5z"/>
<path d="M8385 2500 c-7 -12 12 -12 40 0 18 8 17 9 -7 9 -15 1 -30 -3 -33 -9z"/>
<path d="M8791 2506 c12 -10 60 -16 54 -6 -3 5 -18 10 -32 10 -15 0 -24 -2
-22 -4z"/>
<path d="M9098 2503 c18 -2 45 -2 60 0 15 2 0 4 -33 4 -33 0 -45 -2 -27 -4z"/>
<path d="M8963 2493 c9 -2 23 -2 30 0 6 3 -1 5 -18 5 -16 0 -22 -2 -12 -5z"/>
<path d="M10950 2490 c20 -13 50 -13 50 0 0 6 -15 10 -32 10 -25 0 -29 -3 -18
-10z"/>
<path d="M8170 2480 c0 -6 7 -10 15 -10 8 0 15 2 15 4 0 2 -7 6 -15 10 -8 3
-15 1 -15 -4z"/>
<path d="M8517 2476 c-24 -18 -21 -24 8 -18 14 2 25 8 25 13 0 15 -15 17 -33
5z"/>
<path d="M9821 2476 c-9 -10 -9 -16 -1 -21 17 -10 37 12 24 25 -8 8 -15 6 -23
-4z"/>
<path d="M9920 2480 c0 -6 7 -10 15 -10 8 0 15 2 15 4 0 2 -7 6 -15 10 -8 3
-15 1 -15 -4z"/>
<path d="M10049 2479 c-6 -4 9 -8 35 -10 27 -3 46 0 46 6 0 12 -64 15 -81 4z"/>
<path d="M10660 2486 c0 -2 7 -9 15 -16 12 -10 15 -10 15 4 0 9 -7 16 -15 16
-8 0 -15 -2 -15 -4z"/>
<path d="M10803 2471 c-11 -17 -9 -22 9 -36 26 -17 54 -20 63 -5 6 9 0 11 -44
14 -8 1 -16 7 -19 15 -3 9 1 11 16 7 11 -4 23 -2 27 4 3 5 2 10 -4 10 -5 0
-15 2 -23 5 -7 3 -19 -4 -25 -14z"/>
<path d="M11040 2480 c20 -13 47 -13 55 0 4 6 -9 10 -32 10 -28 0 -34 -3 -23
-10z"/>
<path d="M8290 2470 c0 -5 5 -10 10 -10 6 0 10 5 10 10 0 6 -4 10 -10 10 -5 0
-10 -4 -10 -10z"/>
<path d="M9011 2464 c0 -11 3 -14 6 -6 3 7 2 16 -1 19 -3 4 -6 -2 -5 -13z"/>
<path d="M9530 2470 c0 -5 16 -10 35 -10 27 0 35 -4 35 -17 1 -17 1 -17 11 0
13 23 13 23 -38 31 -27 4 -43 2 -43 -4z"/>
<path d="M9700 2465 c0 -8 9 -10 25 -7 14 2 25 6 25 7 0 1 -11 5 -25 7 -16 3
-25 1 -25 -7z"/>
<path d="M10348 2473 c7 -3 16 -2 19 1 4 3 -2 6 -13 5 -11 0 -14 -3 -6 -6z"/>
<path d="M11228 2466 c-16 -8 -45 -16 -65 -18 -38 -4 -38 -4 -10 -12 22 -7 39
-3 73 13 42 21 53 31 37 31 -5 0 -20 -7 -35 -14z"/>
<path d="M8588 2463 c7 -3 16 -2 19 1 4 3 -2 6 -13 5 -11 0 -14 -3 -6 -6z"/>
<path d="M8780 2460 c-11 -7 -3 -10 30 -9 34 0 40 2 25 9 -27 12 -37 12 -55 0z"/>
<path d="M8942 2463 c-31 -6 -17 -23 19 -23 19 0 29 4 27 12 -5 14 -15 17 -46
11z"/>
<path d="M9115 2460 c-4 -6 6 -10 22 -10 22 0 25 2 13 10 -19 12 -27 12 -35 0z"/>
<path d="M10904 2455 c10 -7 15 -19 11 -24 -8 -14 20 -26 35 -16 8 5 8 11 2
17 -6 6 -8 17 -5 24 4 10 -4 14 -28 14 -31 -1 -33 -2 -15 -15z"/>
<path d="M8340 2445 c6 -8 9 -19 5 -25 -3 -6 3 -10 14 -10 12 0 21 -7 21 -15
0 -32 25 -14 26 19 0 31 -1 33 -18 22 -16 -9 -22 -8 -32 7 -7 9 -17 17 -21 17
-4 0 -2 -7 5 -15z"/>
<path d="M8710 2450 c0 -13 11 -13 30 0 12 8 11 10 -7 10 -13 0 -23 -4 -23
-10z"/>
<path d="M9203 2453 c15 -2 39 -2 55 0 15 2 2 4 -28 4 -30 0 -43 -2 -27 -4z"/>
<path d="M10990 2436 c0 -35 15 -40 34 -11 21 32 20 35 -9 35 -20 0 -25 -5
-25 -24z"/>
<path d="M9555 2440 c-3 -5 -1 -10 4 -10 6 0 11 5 11 10 0 6 -2 10 -4 10 -3 0
-8 -4 -11 -10z"/>
<path d="M11075 2440 c4 -6 11 -8 16 -5 14 9 11 15 -7 15 -8 0 -12 -5 -9 -10z"/>
<path d="M8620 2430 c0 -5 5 -10 10 -10 6 0 10 5 10 10 0 6 -4 10 -10 10 -5 0
-10 -4 -10 -10z"/>
<path d="M8670 2430 c0 -5 7 -10 15 -10 8 0 15 5 15 10 0 6 -7 10 -15 10 -8 0
-15 -4 -15 -10z"/>
<path d="M9241 2424 c0 -11 3 -14 6 -6 3 7 2 16 -1 19 -3 4 -6 -2 -5 -13z"/>
<path d="M9296 2431 c-3 -5 10 -11 29 -13 39 -4 48 6 13 16 -31 8 -36 7 -42
-3z"/>
<path d="M9413 2433 c9 -2 23 -2 30 0 6 3 -1 5 -18 5 -16 0 -22 -2 -12 -5z"/>
<path d="M9860 2430 c-12 -8 -9 -10 13 -10 16 0 26 4 22 10 -8 12 -16 12 -35
0z"/>
<path d="M9935 2430 c-3 -5 -1 -10 4 -10 6 0 11 5 11 10 0 6 -2 10 -4 10 -3 0
-8 -4 -11 -10z"/>
<path d="M10178 2429 c-7 -5 18 -9 61 -9 41 0 72 3 69 6 -10 9 -116 11 -130 3z"/>
<path d="M10380 2430 c0 -5 9 -10 21 -10 11 0 17 5 14 10 -3 6 -13 10 -21 10
-8 0 -14 -4 -14 -10z"/>
<path d="M10720 2427 c14 -7 36 -20 49 -29 13 -9 30 -14 37 -11 22 8 5 25 -18
17 -17 -5 -19 -3 -13 15 6 19 3 21 -37 20 -41 -1 -42 -1 -18 -12z"/>
<path d="M8440 2417 c0 -10 11 -22 26 -27 33 -13 54 -13 54 0 0 6 -12 10 -26
10 -15 0 -33 8 -40 18 -13 16 -13 16 -14 -1z"/>
<path d="M8528 2423 c12 -2 30 -2 40 0 9 3 -1 5 -23 4 -22 0 -30 -2 -17 -4z"/>
<path d="M8985 2420 c-3 -5 1 -10 9 -10 9 0 16 5 16 10 0 6 -4 10 -9 10 -6 0
-13 -4 -16 -10z"/>
<path d="M9085 2425 c23 -8 85 -10 85 -3 0 4 -21 8 -47 7 -27 0 -43 -2 -38 -4z"/>
<path d="M9678 2423 c17 -2 47 -2 65 0 17 2 3 4 -33 4 -36 0 -50 -2 -32 -4z"/>
<path d="M9970 2419 c0 -5 5 -7 10 -4 6 3 10 8 10 11 0 2 -4 4 -10 4 -5 0 -10
-5 -10 -11z"/>
<path d="M10680 2422 c0 -12 19 -26 26 -19 2 2 -2 10 -11 17 -9 8 -15 8 -15 2z"/>
<path d="M8735 2410 c-4 -6 5 -10 19 -10 14 0 26 5 26 10 0 6 -9 10 -19 10
-11 0 -23 -4 -26 -10z"/>
<path d="M8830 2409 c0 -5 5 -7 10 -4 6 3 10 8 10 11 0 2 -4 4 -10 4 -5 0 -10
-5 -10 -11z"/>
<path d="M11088 2411 c18 -3 33 -9 32 -13 0 -5 0 -12 0 -18 0 -5 -6 -10 -14
-10 -7 0 -19 -6 -25 -14 -15 -18 6 -27 57 -25 l37 2 -35 7 -35 7 29 11 c19 9
26 17 22 28 -3 9 -6 20 -6 25 0 5 -21 8 -47 8 -43 -1 -45 -2 -15 -8z"/>
<path d="M11292 2398 c6 -18 28 -21 28 -4 0 9 -7 16 -16 16 -9 0 -14 -5 -12
-12z"/>
<path d="M8320 2389 c0 -5 5 -7 10 -4 6 3 10 8 10 11 0 2 -4 4 -10 4 -5 0 -10
-5 -10 -11z"/>
<path d="M9365 2390 c-3 -5 1 -10 9 -10 9 0 16 5 16 10 0 6 -4 10 -9 10 -6 0
-13 -4 -16 -10z"/>
<path d="M9520 2393 c8 -3 18 -11 22 -17 5 -7 8 -4 8 7 0 11 -7 17 -22 16 -16
0 -18 -2 -8 -6z"/>
<path d="M9920 2389 c0 -5 5 -7 10 -4 6 3 10 8 10 11 0 2 -4 4 -10 4 -5 0 -10
-5 -10 -11z"/>
<path d="M10006 2393 c-11 -11 -6 -23 8 -23 8 0 17 4 20 9 7 10 -19 23 -28 14z"/>
<path d="M10263 2393 c9 -2 23 -2 30 0 6 3 -1 5 -18 5 -16 0 -22 -2 -12 -5z"/>
<path d="M10940 2388 c0 -4 6 -8 13 -9 6 0 38 -3 70 -5 39 -3 58 -1 55 6 -4
13 -138 20 -138 8z"/>
<path d="M11616 2383 c-4 -9 -2 -21 4 -27 7 -7 10 -5 10 7 0 9 7 17 15 17 8 0
14 -6 13 -12 -2 -8 9 -14 25 -16 15 -2 27 -7 27 -12 0 -16 -18 -20 -45 -10
-17 7 -24 7 -20 0 3 -6 13 -10 21 -10 8 0 17 -6 20 -14 4 -11 10 -11 30 -2 31
14 30 27 -5 65 -33 35 -84 43 -95 14z"/>
<path d="M8230 2386 c0 -2 7 -9 15 -16 12 -10 15 -10 15 4 0 9 -7 16 -15 16
-8 0 -15 -2 -15 -4z"/>
<path d="M8578 2383 c7 -3 16 -2 19 1 4 3 -2 6 -13 5 -11 0 -14 -3 -6 -6z"/>
<path d="M9072 2380 c10 -6 25 -7 40 -1 20 9 18 10 -17 10 -31 0 -36 -2 -23
-9z"/>
<path d="M9617 2379 c-10 -6 -15 -14 -12 -19 9 -14 -46 -22 -137 -19 -48 2
-90 0 -94 -4 -10 -9 213 -7 251 3 19 5 23 8 11 9 -19 1 -19 1 -1 14 22 17 7
29 -18 16z"/>
<path d="M9705 2380 c-27 -7 -25 -8 18 -9 26 0 47 4 47 9 0 11 -21 11 -65 0z"/>
<path d="M10098 2383 c12 -2 32 -2 45 0 12 2 2 4 -23 4 -25 0 -35 -2 -22 -4z"/>
<path d="M8750 2370 c0 -5 7 -7 15 -4 8 4 15 8 15 10 0 2 -7 4 -15 4 -8 0 -15
-4 -15 -10z"/>
<path d="M8850 2373 c8 -2 22 -7 30 -9 13 -5 13 -6 0 -14 -11 -7 -8 -10 14
-10 23 0 26 3 17 14 -9 11 -9 15 1 19 7 3 -7 5 -32 5 -25 0 -38 -2 -30 -5z"/>
<path d="M8993 2373 c9 -2 23 -2 30 0 6 3 -1 5 -18 5 -16 0 -22 -2 -12 -5z"/>
<path d="M10720 2371 c0 -6 5 -13 10 -16 6 -3 10 1 10 9 0 9 -4 16 -10 16 -5
0 -10 -4 -10 -9z"/>
<path d="M11187 2373 c-15 -14 -6 -31 13 -26 14 4 20 1 18 -8 -2 -9 7 -15 25
-17 15 -2 27 1 27 7 0 6 -8 11 -19 11 -10 0 -21 9 -24 20 -5 19 -27 27 -40 13z"/>
<path d="M8530 2360 c0 -5 5 -10 10 -10 6 0 10 5 10 10 0 6 -4 10 -10 10 -5 0
-10 -4 -10 -10z"/>
<path d="M8673 2363 c9 -2 23 -2 30 0 6 3 -1 5 -18 5 -16 0 -22 -2 -12 -5z"/>
<path d="M9290 2360 c0 -5 5 -10 10 -10 6 0 10 5 10 10 0 6 -4 10 -10 10 -5 0
-10 -4 -10 -10z"/>
<path d="M8410 2350 l-45 -7 47 -1 c26 -1 50 3 53 8 3 6 3 9 -2 8 -4 0 -28 -4
-53 -8z"/>
<path d="M9040 2350 l-65 -7 60 -1 c33 -1 67 3 75 8 8 5 11 9 5 8 -5 -1 -39
-4 -75 -8z"/>
<path d="M9170 2351 c0 -5 9 -7 20 -4 11 3 20 7 20 9 0 2 -9 4 -20 4 -11 0
-20 -4 -20 -9z"/>
<path d="M10005 2350 c-3 -5 -1 -10 4 -10 6 0 11 5 11 10 0 6 -2 10 -4 10 -3
0 -8 -4 -11 -10z"/>
<path d="M10055 2350 c-3 -5 -1 -10 4 -10 6 0 11 5 11 10 0 6 -2 10 -4 10 -3
0 -8 -4 -11 -10z"/>
<path d="M10135 2351 c-51 -11 -14 -16 75 -10 62 4 71 6 33 7 -28 1 -57 4 -65
6 -7 2 -26 1 -43 -3z"/>
<path d="M10360 2350 c-12 -8 -10 -10 8 -10 13 0 20 4 17 10 -7 12 -6 12 -25
0z"/>
<path d="M8126 2341 c-8 -13 16 -20 48 -14 31 6 80 -31 72 -54 -3 -7 -1 -13 4
-13 6 0 10 7 10 15 0 21 24 19 45 -5 10 -11 25 -19 34 -19 13 1 13 2 -1 6 -10
2 -18 13 -18 24 0 10 -9 24 -20 31 -25 16 -25 25 -2 31 9 2 0 4 -20 3 -25 -1
-38 -6 -38 -15 0 -11 -4 -11 -18 2 -20 18 -87 23 -96 8z"/>
<path d="M9713 2343 c9 -2 25 -2 35 0 9 3 1 5 -18 5 -19 0 -27 -2 -17 -5z"/>
<path d="M9824 2341 c3 -4 17 -6 31 -3 18 3 25 0 25 -12 0 -21 9 -20 40 4 l25
20 -63 0 c-35 0 -61 -4 -58 -9z"/>
<path d="M10565 2340 c3 -5 8 -10 11 -10 2 0 4 5 4 10 0 6 -5 10 -11 10 -5 0
-7 -4 -4 -10z"/>
<path d="M11562 2336 c-12 -6 -21 -15 -19 -20 4 -13 28 -20 25 -8 -2 6 6 18
17 26 23 18 11 19 -23 2z"/>
<path d="M8785 2330 c3 -5 10 -10 16 -10 5 0 9 5 9 10 0 6 -7 10 -16 10 -8 0
-12 -4 -9 -10z"/>
<path d="M9335 2330 c3 -5 10 -10 16 -10 5 0 9 5 9 10 0 6 -7 10 -16 10 -8 0
-12 -4 -9 -10z"/>
<path d="M8911 2314 c0 -11 3 -14 6 -6 3 7 2 16 -1 19 -3 4 -6 -2 -5 -13z"/>
<path d="M9230 2320 c0 -5 4 -10 9 -10 6 0 13 5 16 10 3 6 -1 10 -9 10 -9 0
-16 -4 -16 -10z"/>
<path d="M10517 2323 c-10 -9 -8 -55 2 -72 11 -17 97 -26 106 -11 4 6 1 18 -7
27 -10 13 -10 17 0 20 20 7 14 23 -9 23 -16 0 -19 -4 -14 -20 6 -17 2 -20 -29
-20 -20 0 -36 5 -36 10 0 6 5 10 10 10 6 0 10 9 10 20 0 19 -20 27 -33 13z"/>
<path d="M11295 2321 c-3 -5 -1 -12 5 -16 12 -7 30 2 30 16 0 12 -27 12 -35 0z"/>
<path d="M8332 2308 c6 -18 28 -21 28 -4 0 9 -7 16 -16 16 -9 0 -14 -5 -12
-12z"/>
<path d="M8460 2311 c0 -5 7 -11 15 -15 9 -3 15 0 15 9 0 8 -7 15 -15 15 -8 0
-15 -4 -15 -9z"/>
<path d="M8515 2310 c3 -5 8 -10 11 -10 2 0 4 5 4 10 0 6 -5 10 -11 10 -5 0
-7 -4 -4 -10z"/>
<path d="M9010 2310 c-18 -12 50 -12 125 0 48 7 46 7 -30 9 -44 0 -87 -4 -95
-9z"/>
<path d="M9615 2309 c-4 -6 -5 -12 -2 -15 2 -3 7 2 10 11 7 17 1 20 -8 4z"/>
<path d="M10420 2310 c0 -13 30 -13 50 0 11 7 7 10 -17 10 -18 0 -33 -4 -33
-10z"/>
<path d="M11731 2294 c-19 -14 -50 -25 -70 -25 -20 -1 -28 -3 -18 -6 11 -3 16
-11 13 -19 -3 -8 -1 -14 3 -14 5 0 17 -3 27 -7 12 -5 15 -3 9 6 -4 8 -2 17 6
22 21 13 39 11 39 -6 0 -8 -8 -15 -17 -15 -12 0 -14 -3 -6 -11 14 -14 55 -8
61 9 2 7 -2 10 -11 6 -9 -3 -16 2 -20 15 -6 25 0 31 30 31 25 0 29 10 11 28
-15 15 -16 15 -57 -14z"/>
<path d="M8625 2300 c-18 -8 -18 -9 5 -9 14 -1 35 -4 48 -7 16 -5 22 -2 22 10
0 18 -40 21 -75 6z"/>
<path d="M9765 2300 c-4 -6 5 -10 20 -10 15 0 24 4 20 10 -3 6 -12 10 -20 10
-8 0 -17 -4 -20 -10z"/>
<path d="M10050 2300 c0 -5 9 -10 21 -10 11 0 17 5 14 10 -3 6 -13 10 -21 10
-8 0 -14 -4 -14 -10z"/>
<path d="M10348 2303 c7 -3 16 -2 19 1 4 3 -2 6 -13 5 -11 0 -14 -3 -6 -6z"/>
<path d="M11160 2300 c8 -5 29 -10 45 -10 23 0 27 3 15 10 -8 5 -28 10 -45 10
-23 0 -27 -3 -15 -10z"/>
<path d="M11620 2302 c0 -14 11 -21 26 -15 21 8 17 23 -6 23 -11 0 -20 -4 -20
-8z"/>
<path d="M8160 2290 c0 -5 7 -7 15 -4 8 4 15 8 15 10 0 2 -7 4 -15 4 -8 0 -15
-4 -15 -10z"/>
<path d="M8392 2268 l-24 -28 39 0 c34 1 36 2 21 14 -24 18 -23 24 5 28 21 3
21 4 2 9 -14 4 -27 -3 -43 -23z"/>
<path d="M8558 2293 c6 -2 18 -2 25 0 6 3 1 5 -13 5 -14 0 -19 -2 -12 -5z"/>
<path d="M8760 2289 c0 -5 5 -7 10 -4 6 3 10 8 10 11 0 2 -4 4 -10 4 -5 0 -10
-5 -10 -11z"/>
<path d="M11243 2280 c-16 -24 -4 -32 33 -20 26 7 27 8 5 9 -20 1 -21 3 -11
16 10 12 10 15 -1 15 -8 0 -20 -9 -26 -20z"/>
<path d="M11330 2290 c0 -5 5 -10 10 -10 6 0 10 5 10 10 0 6 -4 10 -10 10 -5
0 -10 -4 -10 -10z"/>
<path d="M9200 2274 c0 -11 5 -14 16 -10 9 3 25 6 35 6 11 0 17 5 14 10 -11
17 -65 12 -65 -6z"/>
<path d="M9328 2283 c7 -3 16 -2 19 1 4 3 -2 6 -13 5 -11 0 -14 -3 -6 -6z"/>
<path d="M9388 2283 c6 -2 18 -2 25 0 6 3 1 5 -13 5 -14 0 -19 -2 -12 -5z"/>
<path d="M10155 2270 c-17 -7 -15 -9 13 -9 17 -1 32 4 32 9 0 12 -17 12 -45 0z"/>
<path d="M10280 2269 c0 -5 5 -7 10 -4 6 3 10 8 10 11 0 2 -4 4 -10 4 -5 0
-10 -5 -10 -11z"/>
<path d="M10400 2270 c-13 -8 -12 -10 3 -10 9 0 17 5 17 10 0 12 -1 12 -20 0z"/>
<path d="M11195 2270 c-3 -5 1 -10 9 -10 9 0 16 5 16 10 0 6 -4 10 -9 10 -6 0
-13 -4 -16 -10z"/>
<path d="M8915 2260 c-19 -8 -19 -9 3 -9 12 -1 22 4 22 9 0 6 -1 10 -2 9 -2 0
-12 -4 -23 -9z"/>
<path d="M9010 2259 c0 -5 5 -7 10 -4 6 3 10 8 10 11 0 2 -4 4 -10 4 -5 0 -10
-5 -10 -11z"/>
<path d="M9095 2260 c3 -5 8 -10 11 -10 2 0 4 5 4 10 0 6 -5 10 -11 10 -5 0
-7 -4 -4 -10z"/>
<path d="M11780 2260 c0 -5 5 -10 10 -10 6 0 10 -13 10 -28 0 -27 -2 -28 -42
-28 -25 1 -43 -4 -46 -12 -2 -8 5 -11 20 -10 15 2 26 -4 33 -19 5 -13 16 -23
24 -23 12 0 12 3 3 12 -16 16 -15 28 2 28 8 0 16 10 18 22 5 32 28 35 28 4 0
-14 5 -26 11 -26 6 0 8 -9 4 -20 -4 -11 -2 -20 4 -20 6 0 11 -7 11 -15 0 -8 9
-20 20 -27 18 -11 18 -14 3 -30 -10 -11 -12 -18 -5 -18 7 0 17 9 24 20 7 11
16 20 19 20 4 0 9 -9 12 -20 3 -11 1 -20 -4 -20 -5 0 -9 -6 -9 -14 0 -20 -38
-31 -55 -16 -13 11 -30 -1 -18 -14 10 -9 76 -7 93 4 10 6 11 10 3 10 -7 0 -13
4 -13 8 0 5 13 7 29 4 24 -3 29 0 33 23 4 19 2 25 -7 21 -8 -3 -16 5 -19 19
-4 16 -11 22 -21 19 -9 -4 -17 5 -24 28 -5 18 -10 27 -10 21 -2 -26 -31 -13
-31 13 0 19 -4 25 -15 21 -17 -7 -30 9 -15 18 17 11 11 23 -16 29 -17 5 -24
12 -20 21 4 11 -2 15 -19 15 -14 0 -25 -4 -25 -10z m130 -156 c0 -8 -6 -11
-15 -8 -8 4 -15 12 -15 20 0 8 6 11 15 8 8 -4 15 -12 15 -20z"/>
<path d="M8732 2240 c0 -14 2 -19 5 -12 2 6 2 18 0 25 -3 6 -5 1 -5 -13z"/>
<path d="M8783 2253 c15 -2 39 -2 55 0 15 2 2 4 -28 4 -30 0 -43 -2 -27 -4z"/>
<path d="M9537 2253 c-3 -5 16 -7 41 -5 73 5 82 10 20 11 -31 0 -59 -2 -61 -6z"/>
<path d="M9753 2253 c15 -2 39 -2 55 0 15 2 2 4 -28 4 -30 0 -43 -2 -27 -4z"/>
<path d="M9955 2250 c-3 -5 -1 -10 4 -10 6 0 11 5 11 10 0 6 -2 10 -4 10 -3 0
-8 -4 -11 -10z"/>
<path d="M10063 2253 c9 -2 25 -2 35 0 9 3 1 5 -18 5 -19 0 -27 -2 -17 -5z"/>
<path d="M10250 2244 c0 -8 5 -12 10 -9 6 3 10 10 10 16 0 5 -4 9 -10 9 -5 0
-10 -7 -10 -16z"/>
<path d="M10313 2235 c-11 -25 -11 -25 42 -25 71 0 115 10 115 25 0 8 6 16 13
18 6 3 2 6 -11 6 -13 1 -21 -3 -17 -8 15 -25 -69 -40 -107 -20 -17 9 -18 13
-7 20 12 7 11 9 -1 9 -8 0 -20 -11 -27 -25z"/>
<path d="M9420 2240 c0 -5 7 -10 15 -10 8 0 15 5 15 10 0 6 -7 10 -15 10 -8 0
-15 -4 -15 -10z"/>
<path d="M9100 2230 c-8 -5 -12 -11 -9 -14 7 -8 49 5 49 15 0 12 -21 11 -40
-1z"/>
<path d="M9338 2233 c6 -2 18 -2 25 0 6 3 1 5 -13 5 -14 0 -19 -2 -12 -5z"/>
<path d="M11575 2230 c-3 -5 1 -10 9 -10 9 0 16 -9 16 -20 0 -14 -7 -20 -24
-20 -13 0 -27 6 -29 13 -4 10 -6 10 -6 0 -1 -7 -11 -13 -23 -13 -17 0 -19 -3
-9 -9 7 -5 30 -7 50 -4 26 4 42 0 53 -11 26 -25 44 -19 20 7 -13 14 -20 32
-18 50 3 20 -1 27 -15 27 -10 0 -21 -4 -24 -10z"/>
<path d="M8570 2220 c0 -6 7 -10 15 -10 8 0 15 2 15 4 0 2 -7 6 -15 10 -8 3
-15 1 -15 -4z"/>
<path d="M9013 2223 c9 -2 23 -2 30 0 6 3 -1 5 -18 5 -16 0 -22 -2 -12 -5z"/>
<path d="M9835 2220 c-4 -6 -14 -9 -22 -6 -8 3 -11 1 -8 -4 3 -6 12 -10 20
-10 15 0 30 18 22 26 -3 3 -8 0 -12 -6z"/>
<path d="M8510 2210 c0 -5 5 -10 10 -10 6 0 10 5 10 10 0 6 -4 10 -10 10 -5 0
-10 -4 -10 -10z"/>
<path d="M8635 2210 c-3 -5 -1 -10 4 -10 6 0 11 5 11 10 0 6 -2 10 -4 10 -3 0
-8 -4 -11 -10z"/>
<path d="M9550 2210 c0 -5 9 -10 20 -10 11 0 20 5 20 10 0 6 -9 10 -20 10 -11
0 -20 -4 -20 -10z"/>
<path d="M9685 2210 c-4 -6 10 -10 34 -10 22 0 43 5 46 10 4 6 -10 10 -34 10
-22 0 -43 -4 -46 -10z"/>
<path d="M10075 2210 c-28 -7 -28 -8 -5 -9 14 0 32 4 40 9 17 11 8 11 -35 0z"/>
<path d="M10183 2206 c-6 -10 -29 -16 -72 -18 -45 -2 -66 -7 -69 -17 -4 -11 0
-12 14 -6 11 5 64 12 119 15 55 4 82 7 61 8 -37 2 -39 3 -20 17 19 14 18 14
-3 15 -12 0 -26 -7 -30 -14z"/>
<path d="M10540 2213 c0 -4 5 -28 11 -52 7 -30 6 -47 -1 -56 -8 -9 -7 -14 1
-17 27 -9 -5 -28 -46 -28 -39 0 -43 -2 -38 -21 4 -16 2 -20 -8 -17 -8 3 -14
12 -14 21 0 14 -31 46 -45 47 -4 0 -4 -15 -2 -34 5 -39 9 -41 115 -51 44 -5
71 -13 74 -21 7 -19 40 -18 40 1 0 8 -4 15 -9 15 -4 0 -8 7 -8 16 0 12 5 15
23 9 12 -4 54 -11 92 -15 39 -4 75 -9 80 -10 26 -6 65 1 78 15 8 7 27 17 41
21 20 5 25 11 21 25 -5 14 -1 19 12 19 15 0 16 2 3 10 -20 13 -60 13 -60 0 0
-5 5 -10 10 -10 6 0 10 -4 10 -10 0 -13 -47 -13 -55 0 -7 11 29 50 48 50 6 0
4 5 -5 11 -10 5 -26 9 -35 7 -13 -2 -17 3 -16 20 2 14 -3 22 -12 22 -8 0 -15
-6 -15 -12 -1 -21 -37 -58 -57 -59 -10 0 -1 -6 19 -12 l37 -12 -14 -32 c-16
-37 -20 -39 -41 -18 -17 17 -79 21 -69 5 10 -16 -12 -12 -29 5 -19 20 -26 19
-26 -2 -1 -17 -1 -17 -11 0 -7 12 -17 16 -30 12 -14 -5 -19 -2 -19 11 0 14 7
16 40 10 22 -3 40 -3 40 2 0 21 -34 52 -65 58 -56 10 -45 32 12 24 32 -5 51
-4 58 4 6 8 23 10 45 6 l35 -7 -30 -12 c-16 -6 -36 -14 -42 -16 -18 -6 -4 -36
16 -33 11 2 15 -3 13 -17 -2 -17 3 -20 37 -20 22 0 43 4 48 9 5 5 1 7 -9 3
-26 -9 -46 1 -62 34 l-14 29 39 -2 c39 -1 65 11 41 19 -6 3 -10 8 -7 13 6 9
-50 23 -85 21 -23 -2 -97 11 -142 25 -10 3 -18 2 -18 -3z m70 -33 c0 -5 -2
-10 -4 -10 -3 0 -8 5 -11 10 -3 6 -1 10 4 10 6 0 11 -4 11 -10z m45 -1 c11
-17 -1 -21 -15 -4 -8 9 -8 15 -2 15 6 0 14 -5 17 -11z m197 -67 c-27 -4 -37 2
-27 17 4 8 13 7 28 -1 l22 -13 -23 -3z m-252 -1 c0 -5 -7 -11 -15 -15 -15 -5
-20 5 -8 17 9 10 23 9 23 -2z m30 -7 c0 -8 -5 -12 -10 -9 -6 4 -8 11 -5 16 9
14 15 11 15 -7z m236 -54 c8 0 14 -5 14 -11 0 -6 -10 -9 -22 -7 -13 2 -22 6
-20 11 1 4 3 19 3 35 l2 27 4 -27 c2 -16 11 -28 19 -28z m-328 -18 c3 -9 -3
-13 -19 -10 -12 1 -24 9 -27 16 -3 9 3 13 19 10 12 -1 24 -9 27 -16z m42 -8
c0 -8 -4 -12 -10 -9 -5 3 -10 10 -10 16 0 5 5 9 10 9 6 0 10 -7 10 -16z"/>
<path d="M10775 2210 c11 -5 31 -8 45 -8 l25 0 -25 8 c-14 4 -34 8 -45 8 l-20
1 20 -9z"/>
<path d="M7585 2183 c-34 -45 -39 -56 -22 -47 25 15 70 74 55 74 -7 0 -22 -13
-33 -27z"/>
<path d="M9305 2200 c-19 -8 -19 -9 3 -9 12 -1 22 4 22 9 0 6 -1 10 -2 9 -2 0
-12 -4 -23 -9z"/>
<path d="M9498 2203 c7 -3 16 -2 19 1 4 3 -2 6 -13 5 -11 0 -14 -3 -6 -6z"/>
<path d="M9940 2200 c0 -11 21 -11 65 0 27 7 25 8 -17 9 -27 0 -48 -3 -48 -9z"/>
<path d="M8700 2184 c-25 -15 -25 -15 14 -10 22 3 44 10 50 16 16 16 -35 12
-64 -6z"/>
<path d="M9180 2190 c0 -5 16 -10 36 -10 21 0 33 4 29 10 -3 6 -19 10 -36 10
-16 0 -29 -4 -29 -10z"/>
<path d="M10305 2190 c-3 -5 1 -10 9 -10 9 0 16 5 16 10 0 6 -4 10 -9 10 -6 0
-13 -4 -16 -10z"/>
<path d="M10445 2190 l-50 -7 47 -1 c26 -1 50 3 53 8 3 6 5 9 3 8 -2 0 -25 -4
-53 -8z"/>
<path d="M11635 2190 c3 -5 15 -10 26 -10 11 0 17 5 14 10 -3 6 -15 10 -26 10
-11 0 -17 -4 -14 -10z"/>
<path d="M8380 2180 c-13 -8 -12 -10 3 -10 9 0 17 5 17 10 0 12 -1 12 -20 0z"/>
<path d="M8605 2180 c-3 -5 -1 -10 4 -10 6 0 11 5 11 10 0 6 -2 10 -4 10 -3 0
-8 -4 -11 -10z"/>
<path d="M9630 2180 c0 -5 7 -10 15 -10 8 0 15 5 15 10 0 6 -7 10 -15 10 -8 0
-15 -4 -15 -10z"/>
<path d="M8448 2173 c12 -2 30 -2 40 0 9 3 -1 5 -23 4 -22 0 -30 -2 -17 -4z"/>
<path d="M8846 2171 c5 -5 40 -5 79 -1 l70 7 -79 2 c-47 0 -76 -3 -70 -8z"/>
<path d="M9460 2170 c-24 -8 -23 -8 8 -9 20 -1 31 3 27 9 -3 6 -7 10 -8 9 -1
-1 -13 -5 -27 -9z"/>
<path d="M9560 2170 c0 -5 4 -10 9 -10 6 0 13 5 16 10 3 6 -1 10 -9 10 -9 0
-16 -4 -16 -10z"/>
<path d="M9684 2166 c-10 -8 -16 -18 -11 -22 4 -4 7 -3 7 2 0 6 21 11 48 13
63 3 81 21 21 21 -25 0 -54 -6 -65 -14z"/>
<path d="M9843 2173 c9 -2 25 -2 35 0 9 3 1 5 -18 5 -19 0 -27 -2 -17 -5z"/>
<path d="M9231 2153 c-7 -8 -10 -17 -7 -20 9 -9 29 13 25 25 -2 6 -10 3 -18
-5z"/>
<path d="M9342 2145 c-13 -14 -33 -25 -47 -25 -27 0 -34 -15 -10 -24 8 -3 15
-12 15 -21 0 -8 5 -15 10 -15 7 0 7 6 1 19 -13 24 -5 31 36 31 28 0 33 -3 33
-24 0 -13 -7 -29 -15 -36 -22 -18 -1 -30 41 -23 18 3 41 2 51 -2 17 -7 17 -8
-2 -15 -11 -5 -32 -9 -47 -9 -15 -1 -30 -6 -34 -12 -5 -9 6 -10 42 -6 27 4
121 11 209 17 88 6 174 15 190 20 21 7 7 8 -46 4 l-76 -6 5 31 4 32 -35 -18
c-30 -16 -32 -19 -16 -25 28 -11 23 -18 -10 -18 -21 0 -32 6 -36 20 -8 26 -29
26 -22 1 5 -22 -10 -31 -54 -31 -28 0 -35 10 -30 48 1 7 -9 12 -24 12 -14 0
-28 7 -31 15 -4 8 -17 15 -31 15 -19 0 -24 4 -19 16 4 12 1 14 -13 9 -27 -8
-38 15 -16 32 11 7 14 13 9 13 -6 0 -20 -11 -32 -25z m101 -75 c15 -7 27 -17
27 -22 0 -9 -74 -11 -83 -2 -8 8 11 46 21 41 4 -1 19 -9 35 -17z"/>
<path d="M9925 2160 c-4 -6 5 -9 19 -8 15 1 26 6 26 10 0 12 -38 10 -45 -2z"/>
<path d="M8528 2148 c-4 -9 -17 -18 -30 -21 l-23 -4 23 -2 c13 0 22 -8 23 -18
0 -13 3 -11 10 6 5 14 8 32 7 40 -3 14 -4 14 -10 -1z"/>
<path d="M9030 2145 c-11 -13 -2 -15 74 -15 47 0 86 4 86 8 0 5 -27 6 -60 4
-36 -3 -65 0 -74 7 -10 9 -16 8 -26 -4z"/>
<path d="M10201 2153 c0 -5 4 -17 9 -28 8 -18 9 -19 9 -1 1 13 6 16 19 11 37
-15 52 -17 52 -5 0 7 -6 10 -14 7 -8 -3 -22 1 -33 8 -20 16 -43 20 -42 8z"/>
<path d="M10340 2150 c0 -5 12 -10 28 -9 24 0 25 1 7 9 -27 12 -35 12 -35 0z"/>
<path d="M10445 2150 c-25 -6 -20 -8 28 -9 37 -1 56 3 52 9 -7 11 -36 11 -80
0z"/>
<path d="M11680 2150 c0 -5 12 -10 28 -10 21 0 24 2 12 10 -20 13 -40 13 -40
0z"/>
<path d="M8365 2139 c-9 -14 -2 -20 14 -10 8 6 9 11 3 15 -6 3 -14 1 -17 -5z"/>
<path d="M8426 2134 c-4 -10 -1 -14 6 -12 15 5 23 28 10 28 -5 0 -13 -7 -16
-16z"/>
<path d="M8953 2129 c22 -17 25 -24 16 -35 -9 -11 -7 -14 11 -14 17 0 21 4 16
17 -4 9 -1 20 6 25 9 5 4 8 -14 8 -15 0 -30 5 -33 10 -3 6 -12 10 -18 10 -7 0
1 -10 16 -21z"/>
<path d="M9723 2143 c-13 -2 -23 -8 -23 -12 0 -12 43 -6 48 7 2 7 2 11 0 11
-1 -1 -13 -4 -25 -6z"/>
<path d="M11510 2140 c0 -13 20 -13 40 0 12 8 9 10 -12 10 -16 0 -28 -4 -28
-10z"/>
<path d="M11590 2141 c0 -6 5 -13 10 -16 6 -3 10 1 10 9 0 9 -4 16 -10 16 -5
0 -10 -4 -10 -9z"/>
<path d="M8623 2133 c9 -2 25 -2 35 0 9 3 1 5 -18 5 -19 0 -27 -2 -17 -5z"/>
<path d="M8800 2130 c0 -5 7 -10 16 -10 8 0 12 5 9 10 -3 6 -10 10 -16 10 -5
0 -9 -4 -9 -10z"/>
<path d="M9568 2133 c6 -2 18 -2 25 0 6 3 1 5 -13 5 -14 0 -19 -2 -12 -5z"/>
<path d="M9795 2130 c-37 -7 -35 -7 23 -9 66 -1 82 -14 30 -25 -54 -11 -25
-16 38 -7 32 5 49 9 37 10 -12 0 -27 10 -33 21 -11 21 -26 22 -95 10z"/>
<path d="M10023 2121 c-3 -11 -12 -22 -22 -24 -9 -3 -2 -5 16 -6 17 0 35 4 38
9 3 6 0 10 -7 10 -8 1 -6 6 6 15 19 15 19 15 -3 15 -14 0 -25 -7 -28 -19z"/>
<path d="M8878 2123 c6 -2 18 -2 25 0 6 3 1 5 -13 5 -14 0 -19 -2 -12 -5z"/>
<path d="M9503 2123 c9 -2 25 -2 35 0 9 3 1 5 -18 5 -19 0 -27 -2 -17 -5z"/>
<path d="M9950 2119 c0 -5 5 -7 10 -4 6 3 10 8 10 11 0 2 -4 4 -10 4 -5 0 -10
-5 -10 -11z"/>
<path d="M10137 2115 c-13 -9 -15 -15 -7 -20 14 -8 34 9 29 23 -3 7 -11 6 -22
-3z"/>
<path d="M9210 2114 c0 -3 5 -15 12 -27 11 -21 11 -21 18 -2 4 11 2 23 -4 27
-13 9 -26 10 -26 2z"/>
<path d="M10340 2111 c0 -11 26 -22 34 -14 3 3 3 10 0 14 -7 12 -34 11 -34 0z"/>
<path d="M10504 2106 l-22 -12 24 -11 c22 -10 23 -9 22 13 -1 13 -3 24 -3 23
0 -1 -10 -6 -21 -13z"/>
<path d="M11530 2110 c0 -5 5 -10 11 -10 5 0 7 5 4 10 -3 6 -8 10 -11 10 -2 0
-4 -4 -4 -10z"/>
<path d="M11815 2111 c-6 -5 -19 -11 -30 -14 -11 -3 -5 -5 13 -4 19 1 32 7 32
14 0 15 -3 16 -15 4z"/>
<path d="M8723 2103 c9 -2 23 -2 30 0 6 3 -1 5 -18 5 -16 0 -22 -2 -12 -5z"/>
<path d="M9494 2099 c-3 -5 6 -9 20 -9 31 0 34 6 6 13 -11 3 -23 1 -26 -4z"/>
<path d="M10175 2100 c3 -5 11 -10 16 -10 6 0 7 5 4 10 -3 6 -11 10 -16 10 -6
0 -7 -4 -4 -10z"/>
<path d="M10433 2103 c9 -2 23 -2 30 0 6 3 -1 5 -18 5 -16 0 -22 -2 -12 -5z"/>
<path d="M11402 2085 c22 -25 34 -33 23 -15 -4 6 6 10 21 10 25 0 26 -1 11
-13 -15 -10 -10 -11 30 -7 34 3 40 5 21 8 -16 2 -28 9 -28 16 0 8 -12 11 -36
8 -26 -3 -35 -1 -30 7 5 7 -1 11 -13 11 -21 0 -21 0 1 -25z"/>
<path d="M11607 2104 c-4 -4 -7 -14 -7 -23 0 -11 3 -12 11 -4 6 6 10 16 7 23
-2 6 -7 8 -11 4z"/>
<path d="M11708 2104 c20 -9 3 -24 -31 -25 -30 -1 -30 -2 8 -9 46 -9 42 -10
47 15 2 13 -3 20 -17 22 -11 1 -14 0 -7 -3z"/>
<path d="M9085 2090 c-4 -6 6 -10 22 -10 22 0 25 2 13 10 -19 12 -27 12 -35 0z"/>
<path d="M9578 2093 c7 -3 16 -2 19 1 4 3 -2 6 -13 5 -11 0 -14 -3 -6 -6z"/>
<path d="M9670 2089 c0 -5 5 -7 10 -4 6 3 10 8 10 11 0 2 -4 4 -10 4 -5 0 -10
-5 -10 -11z"/>
<path d="M9746 2083 c12 -2 24 -13 27 -25 4 -14 11 -19 22 -14 9 3 23 6 31 6
9 0 12 5 9 10 -3 6 -15 10 -26 10 -10 0 -19 5 -19 10 0 6 -15 9 -32 9 -22 -1
-26 -3 -12 -6z"/>
<path d="M10219 2083 c-1 -5 -1 -12 0 -17 1 -4 -3 -14 -10 -22 -15 -19 -3 -34
29 -34 21 0 24 2 12 10 -12 8 -11 10 7 10 12 0 23 6 26 13 4 9 7 9 18 -1 12
-11 12 -14 -1 -22 -11 -7 -5 -10 23 -10 37 0 50 16 22 26 -8 4 -15 13 -15 22
0 11 -3 13 -10 6 -15 -15 -80 -5 -80 12 0 14 -19 20 -21 7z"/>
<path d="M9030 2067 c0 -22 27 -40 50 -34 11 3 23 1 26 -4 3 -5 34 -9 70 -9
36 0 64 -4 64 -10 0 -5 24 -10 53 -9 50 1 51 1 22 12 l-30 11 25 7 c24 7 23 7
-7 8 -17 1 -33 6 -35 12 -2 6 -14 5 -33 -5 -39 -21 -48 -20 -62 3 -10 16 -9
20 5 24 10 3 6 5 -10 6 -20 1 -26 -3 -22 -14 8 -21 -64 -20 -94 1 -19 13 -22
13 -22 1z"/>
<path d="M10090 2070 c0 -5 5 -10 10 -10 6 0 10 5 10 10 0 6 -4 10 -10 10 -5
0 -10 -4 -10 -10z"/>
<path d="M11555 2070 c3 -5 11 -10 16 -10 6 0 7 5 4 10 -3 6 -11 10 -16 10 -6
0 -7 -4 -4 -10z"/>
<path d="M9866 2055 c4 -8 10 -15 15 -15 5 0 9 7 9 15 0 8 -7 15 -15 15 -9 0
-12 -6 -9 -15z"/>
<path d="M9937 2063 c12 -2 27 -11 33 -19 14 -16 40 -19 40 -4 0 6 12 10 28
11 24 0 25 1 7 9 -11 5 -45 8 -75 8 -30 0 -45 -3 -33 -5z"/>
<path d="M11775 2060 c-16 -7 -11 -9 20 -9 29 -1 36 2 25 9 -17 11 -19 11 -45
0z"/>
<path d="M8958 2053 c6 -2 18 -2 25 0 6 3 1 5 -13 5 -14 0 -19 -2 -12 -5z"/>
<path d="M10103 2034 l-22 -24 23 0 c13 0 38 6 55 13 l32 13 -26 12 c-33 15
-36 15 -62 -14z"/>
<path d="M11490 2040 c0 -5 5 -10 10 -10 6 0 10 5 10 10 0 6 -4 10 -10 10 -5
0 -10 -4 -10 -10z"/>
<path d="M8870 2029 c0 -10 42 -17 153 -23 54 -3 85 -1 82 4 -4 6 -39 10 -78
10 -40 1 -91 5 -114 9 -24 5 -43 5 -43 0z"/>
<path d="M11540 2033 c0 -1 13 -9 30 -18 39 -20 59 -19 53 3 -3 13 -14 17 -44
17 -21 0 -39 -1 -39 -2z"/>
<path d="M11655 2030 c3 -5 19 -10 36 -10 16 0 29 5 29 10 0 6 -16 10 -36 10
-21 0 -33 -4 -29 -10z"/>
<path d="M11760 2030 c0 -4 9 -15 20 -25 11 -10 20 -13 20 -7 0 7 9 12 21 12
11 0 18 4 15 9 -7 10 -76 20 -76 11z"/>
<path d="M8443 2023 c9 -2 25 -2 35 0 9 3 1 5 -18 5 -19 0 -27 -2 -17 -5z"/>
<path d="M8358 2013 c7 -3 16 -2 19 1 4 3 -2 6 -13 5 -11 0 -14 -3 -6 -6z"/>
<path d="M8685 2010 c-3 -5 -1 -10 4 -10 6 0 11 5 11 10 0 6 -2 10 -4 10 -3 0
-8 -4 -11 -10z"/>
<path d="M11357 2013 c18 -2 50 -2 70 0 21 2 7 4 -32 4 -38 0 -55 -2 -38 -4z"/>
<path d="M12020 2005 c-7 -8 -19 -15 -26 -15 -8 0 -14 -4 -14 -9 0 -5 -10 -12
-22 -14 -13 -3 5 -5 39 -4 40 0 70 -5 85 -15 28 -19 22 -28 -15 -21 -18 4 -24
9 -17 13 6 4 -24 5 -67 2 -84 -5 -95 -8 -73 -22 9 -6 17 -5 21 2 5 8 16 7 39
-1 18 -6 67 -11 108 -11 69 0 74 1 56 15 -16 12 -17 16 -4 24 22 15 7 23 -47
24 -41 2 -47 4 -36 15 7 7 13 18 13 23 0 14 -26 11 -40 -6z"/>
<path d="M11690 1990 c20 -13 33 -13 25 0 -3 6 -14 10 -23 10 -15 0 -15 -2 -2
-10z"/>
<path d="M8970 1970 c0 -5 7 -7 15 -4 8 4 15 8 15 10 0 2 -7 4 -15 4 -8 0 -15
-4 -15 -10z"/>
<path d="M9018 1973 c6 -2 18 -2 25 0 6 3 1 5 -13 5 -14 0 -19 -2 -12 -5z"/>
<path d="M9118 1973 c34 -2 88 -2 120 0 31 2 3 3 -63 3 -66 0 -92 -1 -57 -3z"/>
<path d="M9383 1963 c9 -2 25 -2 35 0 9 3 1 5 -18 5 -19 0 -27 -2 -17 -5z"/>
<path d="M10715 1960 c-37 -7 -35 -7 23 -9 35 0 62 3 62 9 0 11 -24 11 -85 0z"/>
<path d="M10925 1950 c-4 -7 247 -32 253 -25 3 3 3 7 1 9 -7 7 -250 22 -254
16z"/>
<path d="M9227 1933 c18 -2 50 -2 70 0 21 2 7 4 -32 4 -38 0 -55 -2 -38 -4z"/>
<path d="M9385 1923 c33 -8 42 -23 15 -23 -20 0 -22 -2 -10 -10 8 -5 78 -9
155 -8 113 1 128 2 80 8 -33 4 -90 8 -127 9 -49 1 -67 5 -65 14 1 7 -11 13
-33 14 -19 1 -26 -1 -15 -4z"/>
<path d="M11229 1916 c13 -5 29 -5 42 0 17 8 13 9 -21 9 -34 0 -38 -1 -21 -9z"/>
<path d="M9283 1903 c15 -2 37 -2 50 0 12 2 0 4 -28 4 -27 0 -38 -2 -22 -4z"/>
<path d="M11318 1903 c6 -2 18 -2 25 0 6 3 1 5 -13 5 -14 0 -19 -2 -12 -5z"/>
<path d="M12168 1903 c7 -3 16 -2 19 1 4 3 -2 6 -13 5 -11 0 -14 -3 -6 -6z"/>
<path d="M8408 1893 c6 -2 18 -2 25 0 6 3 1 5 -13 5 -14 0 -19 -2 -12 -5z"/>
<path d="M11383 1893 c9 -2 23 -2 30 0 6 3 -1 5 -18 5 -16 0 -22 -2 -12 -5z"/>
<path d="M8376 1869 c3 -5 24 -9 46 -9 51 0 47 5 -10 13 -24 3 -40 1 -36 -4z"/>
<path d="M11363 1873 c9 -2 23 -2 30 0 6 3 -1 5 -18 5 -16 0 -22 -2 -12 -5z"/>
<path d="M11523 1863 c9 -2 23 -2 30 0 6 3 -1 5 -18 5 -16 0 -22 -2 -12 -5z"/>
<path d="M8478 1853 c7 -3 16 -2 19 1 4 3 -2 6 -13 5 -11 0 -14 -3 -6 -6z"/>
<path d="M8525 1840 c18 -8 17 -9 -8 -9 -38 -1 -30 -25 9 -28 25 -2 26 -1 9 7
-17 9 -15 10 10 5 17 -2 40 -7 53 -11 43 -12 22 14 -25 30 -49 17 -83 21 -48
6z"/>
<path d="M11488 1833 c18 -2 45 -2 60 0 15 2 0 4 -33 4 -33 0 -45 -2 -27 -4z"/>
<path d="M9028 1813 c7 -3 16 -2 19 1 4 3 -2 6 -13 5 -11 0 -14 -3 -6 -6z"/>
<path d="M11608 1813 c6 -2 18 -2 25 0 6 3 1 5 -13 5 -14 0 -19 -2 -12 -5z"/>
<path d="M11797 1813 c18 -2 50 -2 70 0 21 2 7 4 -32 4 -38 0 -55 -2 -38 -4z"/>
<path d="M11943 1813 c15 -2 37 -2 50 0 12 2 0 4 -28 4 -27 0 -38 -2 -22 -4z"/>
<path d="M12098 1813 c12 -2 30 -2 40 0 9 3 -1 5 -23 4 -22 0 -30 -2 -17 -4z"/>
<path d="M8620 1780 l-45 -7 45 0 c25 -1 74 3 110 7 l65 7 -65 0 c-36 0 -85
-3 -110 -7z"/>
<path d="M8923 1763 c9 -2 25 -2 35 0 9 3 1 5 -18 5 -19 0 -27 -2 -17 -5z"/>
<path d="M9150 1760 c-62 -6 -60 -7 35 -8 55 -1 111 -5 125 -8 18 -4 21 -3 10
4 -22 14 -96 19 -170 12z"/>
<path d="M8808 1733 c6 -2 18 -2 25 0 6 3 1 5 -13 5 -14 0 -19 -2 -12 -5z"/>
<path d="M9253 1713 c9 -2 23 -2 30 0 6 3 -1 5 -18 5 -16 0 -22 -2 -12 -5z"/>
<path d="M9305 1700 c-4 -6 11 -10 37 -10 24 0 75 -2 113 -5 l70 -5 -85 15
c-103 17 -127 18 -135 5z"/>
<path d="M9747 1703 c18 -2 50 -2 70 0 21 2 7 4 -32 4 -38 0 -55 -2 -38 -4z"/>
<path d="M8805 1680 c-8 -13 5 -13 25 0 13 8 13 10 -2 10 -9 0 -20 -4 -23 -10z"/>
<path d="M8865 1670 c3 -5 11 -10 16 -10 6 0 7 5 4 10 -3 6 -11 10 -16 10 -6
0 -7 -4 -4 -10z"/>
<path d="M8289 1587 c4 -4 39 -7 77 -5 l69 3 -77 5 c-42 3 -73 1 -69 -3z"/>
<path d="M8468 1593 c17 -2 47 -2 65 0 17 2 3 4 -33 4 -36 0 -50 -2 -32 -4z"/>
<path d="M8640 1589 c-42 -7 -40 -7 18 -5 34 1 62 -1 62 -6 0 -4 19 -7 43 -6
37 1 38 2 9 5 -18 2 -30 9 -27 14 7 10 -38 10 -105 -2z"/>
<path d="M8958 1563 c12 -2 32 -2 45 0 12 2 2 4 -23 4 -25 0 -35 -2 -22 -4z"/>
<path d="M9063 1553 c9 -2 23 -2 30 0 6 3 -1 5 -18 5 -16 0 -22 -2 -12 -5z"/>
<path d="M9138 1543 c6 -2 18 -2 25 0 6 3 1 5 -13 5 -14 0 -19 -2 -12 -5z"/>
<path d="M9185 1530 c3 -5 17 -10 31 -10 14 0 22 4 19 10 -3 6 -17 10 -31 10
-14 0 -22 -4 -19 -10z"/>
<path d="M9258 1513 c6 -2 18 -2 25 0 6 3 1 5 -13 5 -14 0 -19 -2 -12 -5z"/>
<path d="M9330 1500 c16 -5 -20 -9 -100 -11 l-125 -3 145 -6 c80 -3 147 -4
150 -2 12 9 -37 32 -64 31 -30 -1 -30 -1 -6 -9z"/>
<path d="M9350 1449 c66 -11 99 -11 80 1 -8 5 -40 9 -70 9 l-55 -2 45 -8z"/>
<path d="M10795 1448 c-3 -7 -4 -24 -3 -38 4 -52 -2 -80 -16 -80 -24 0 -29
-20 -10 -35 24 -18 35 -19 28 -1 -3 8 4 24 15 35 16 16 18 21 6 21 -14 0 -14
3 -1 28 13 26 13 31 -1 45 -23 23 -12 30 16 11 18 -13 21 -23 17 -53 -4 -33
-3 -34 10 -17 19 26 18 39 -7 70 -22 28 -47 34 -54 14z"/>
<path d="M11319 1453 c-6 -63 -4 -72 17 -67 26 7 37 -9 36 -47 0 -16 4 -29 9
-29 5 0 9 -5 9 -11 0 -6 -16 -9 -37 -7 -35 3 -39 6 -44 38 -5 27 -7 29 -8 10
-1 -14 -21 -47 -45 -74 -43 -49 -44 -50 -69 -33 -14 9 -28 30 -32 47 -6 25
-10 29 -30 24 -16 -4 -26 0 -33 11 -16 30 -22 -9 -6 -40 8 -15 14 -33 14 -40
0 -18 39 -65 55 -65 8 0 11 7 8 19 -3 10 0 22 6 25 9 6 16 -19 12 -46 0 -3 13
-9 29 -13 22 -5 32 -15 40 -40 6 -19 9 -39 6 -44 -4 -5 -1 -31 6 -56 12 -43
11 -48 -7 -61 -17 -13 -17 -14 -1 -14 9 0 24 7 32 15 9 8 34 15 57 15 23 0 49
5 57 11 11 7 -2 8 -42 3 l-58 -6 0 38 c0 24 -3 34 -9 26 -6 -11 -10 -11 -19 0
-13 16 1 44 17 34 7 -5 11 4 11 24 0 24 6 33 26 40 36 14 35 15 76 -42 28 -38
38 -64 43 -107 4 -31 9 -63 12 -71 10 -26 29 111 27 201 l-1 86 -46 58 c-26
31 -47 64 -47 73 0 10 -7 30 -15 46 -12 22 -13 32 -3 43 9 11 9 16 -3 24 -17
11 -49 12 -50 2z m41 -17 c0 -8 -4 -17 -9 -21 -12 -7 -24 12 -16 25 9 15 25
12 25 -4z m-200 -205 c0 -28 -10 -31 -31 -10 -19 19 -25 50 -12 63 10 10 43
-32 43 -53z m177 25 c25 -26 21 -36 -12 -36 -32 0 -51 25 -35 45 16 20 21 19
47 -9z m-67 -71 c0 -21 -2 -21 -35 -11 -41 13 -43 19 -13 40 26 19 48 5 48
-29z m161 35 c1 -5 2 -16 4 -22 1 -7 -4 -22 -11 -34 -9 -16 -9 -25 2 -45 21
-37 17 -45 -11 -19 -14 13 -25 33 -25 46 0 12 -7 24 -15 28 -25 9 -18 36 11
36 14 0 23 4 19 10 -3 6 1 10 9 10 9 0 17 -4 17 -10z m-121 -17 c0 -5 -4 -14
-9 -21 -7 -11 -9 -11 -14 1 -3 8 -3 18 0 21 9 8 23 7 23 -1z m32 -25 c-9 -9
-12 -7 -12 12 0 19 3 21 12 12 9 -9 9 -15 0 -24z m-57 -78 c3 -5 1 -10 -4 -10
-6 0 -11 5 -11 10 0 6 2 10 4 10 3 0 8 -4 11 -10z"/>
<path d="M9538 1423 c18 -2 45 -2 60 0 15 2 0 4 -33 4 -33 0 -45 -2 -27 -4z"/>
<path d="M9608 1403 c18 -2 45 -2 60 0 15 2 0 4 -33 4 -33 0 -45 -2 -27 -4z"/>
<path d="M9808 1393 c6 -2 18 -2 25 0 6 3 1 5 -13 5 -14 0 -19 -2 -12 -5z"/>
<path d="M11100 1349 c0 -9 9 -19 20 -22 13 -3 20 0 20 10 0 8 -5 11 -11 7 -6
-3 -15 0 -20 7 -7 11 -9 11 -9 -2z"/>
<path d="M10851 1306 c-1 -33 1 -37 14 -26 13 10 15 9 15 -12 0 -14 -14 -37
-33 -56 -27 -27 -41 -32 -79 -32 -27 0 -50 6 -57 14 -10 11 -17 9 -41 -15 -23
-23 -37 -29 -73 -29 -56 0 -86 34 -102 117 -7 37 -30 61 -38 40 -2 -7 -28 -19
-57 -27 -28 -8 -54 -18 -57 -24 -3 -5 -1 -6 5 -3 13 9 42 -2 42 -15 0 -6 -13
-8 -30 -6 -21 3 -30 0 -30 -9 0 -9 11 -12 32 -11 31 3 33 1 45 -42 11 -44 11
-44 12 -11 1 33 2 33 31 -27 32 -64 60 -82 122 -82 35 0 88 -35 88 -57 0 -9 3
-14 6 -11 3 3 0 25 -6 48 -10 37 -14 41 -35 36 -13 -3 -27 -2 -30 4 -3 5 -15
10 -26 10 -15 0 -20 6 -17 22 2 17 12 24 38 29 19 3 45 11 58 18 30 16 43 6
35 -29 -4 -23 -2 -30 11 -30 18 0 21 -15 5 -26 -8 -4 -9 -28 -5 -71 4 -41 3
-62 -3 -59 -18 12 -21 -12 -6 -48 20 -47 19 -83 -2 -95 -15 -8 -14 -10 10 -16
22 -6 31 -3 43 14 11 15 26 21 55 21 21 0 39 4 39 9 0 5 -24 8 -52 7 l-53 -1
-10 103 -10 102 58 -6 c50 -6 62 -4 87 15 16 11 31 21 34 21 2 0 19 -26 36
-57 23 -44 29 -63 22 -78 -5 -11 -15 -38 -22 -60 -7 -22 -19 -48 -28 -58 -8
-9 -12 -20 -7 -25 4 -4 10 -1 12 6 3 6 10 12 17 12 6 0 18 21 25 48 l14 47 9
-39 c5 -26 5 -43 -2 -50 -17 -17 -11 -28 13 -20 12 4 24 10 27 14 3 4 14 10
25 13 15 3 12 5 -10 7 -26 1 -27 3 -10 10 17 7 17 9 3 9 -26 1 -41 36 -26 60
9 15 9 28 0 59 -7 22 -12 68 -12 103 0 59 -2 65 -37 101 -31 32 -38 46 -39 84
-1 27 -8 50 -17 57 -8 7 -17 19 -20 27 -3 8 -6 -2 -6 -24z m-384 -34 c17 -11
55 -118 51 -144 -5 -34 -31 -32 -50 3 -22 38 -23 69 -3 69 8 0 15 4 15 9 0 4
-11 7 -25 6 -14 -2 -25 1 -25 6 0 5 -7 9 -15 9 -15 0 -21 31 -8 43 9 9 45 9
60 -1z m258 -112 c3 -5 -1 -10 -9 -10 -9 0 -16 5 -16 10 0 6 4 10 9 10 6 0 13
-4 16 -10z m229 -83 c3 -50 1 -57 -15 -57 -12 0 -19 7 -19 19 0 11 -6 26 -13
33 -19 20 -15 60 8 68 29 11 35 1 39 -63z m-194 53 c0 -6 -7 -13 -15 -16 -20
-8 -48 3 -40 16 8 13 55 13 55 0z m-14 -55 c3 -14 10 -25 15 -25 5 0 7 11 3
25 -4 15 -2 25 5 25 6 0 11 -7 11 -15 0 -8 7 -15 15 -15 9 0 12 6 9 15 -9 23
9 17 29 -10 22 -30 14 -35 -56 -33 -55 2 -57 3 -57 30 0 35 17 37 26 3z m218
-87 c9 -36 7 -41 -9 -28 -9 7 -13 15 -10 18 3 3 0 11 -6 19 -9 10 -8 13 4 13
8 0 17 -10 21 -22z"/>
<path d="M10430 1259 c0 -5 5 -7 10 -4 6 3 10 8 10 11 0 2 -4 4 -10 4 -5 0
-10 -5 -10 -11z"/>
<path d="M10707 1269 c-20 -11 -37 -24 -37 -29 0 -14 9 -12 26 5 17 17 44 20
44 5 0 -5 -9 -10 -20 -10 -11 0 -20 -4 -20 -8 0 -4 19 -8 42 -7 50 0 62 23 26
47 -22 14 -27 14 -61 -3z m73 -23 c0 -2 -7 -6 -15 -10 -8 -3 -15 -1 -15 4 0 6
7 10 15 10 8 0 15 -2 15 -4z"/>
<path d="M8038 1203 c7 -3 16 -2 19 1 4 3 -2 6 -13 5 -11 0 -14 -3 -6 -6z"/>
<path d="M8168 1133 c7 -3 16 -2 19 1 4 3 -2 6 -13 5 -11 0 -14 -3 -6 -6z"/>
<path d="M8228 1133 c7 -3 16 -2 19 1 4 3 -2 6 -13 5 -11 0 -14 -3 -6 -6z"/>
<path d="M8343 1133 c26 -2 68 -2 95 0 26 2 4 3 -48 3 -52 0 -74 -1 -47 -3z"/>
<path d="M7453 1123 c9 -2 25 -2 35 0 9 3 1 5 -18 5 -19 0 -27 -2 -17 -5z"/>
<path d="M8670 1120 c0 -5 7 -7 15 -4 8 4 15 8 15 10 0 2 -7 4 -15 4 -8 0 -15
-4 -15 -10z"/>
<path d="M10420 1101 c0 -6 4 -13 10 -16 6 -3 7 1 4 9 -7 18 -14 21 -14 7z"/>
<path d="M9463 1083 c26 -2 68 -2 95 0 26 2 4 3 -48 3 -52 0 -74 -1 -47 -3z"/>
<path d="M9643 1083 c9 -2 23 -2 30 0 6 3 -1 5 -18 5 -16 0 -22 -2 -12 -5z"/>
<path d="M9081 1061 c-20 -13 2 -22 38 -15 17 4 34 11 37 15 7 12 -57 11 -75
0z"/>
<path d="M9298 1063 c28 -2 76 -2 105 0 28 2 5 3 -53 3 -58 0 -81 -1 -52 -3z"/>
<path d="M9903 1046 c20 -23 23 -23 38 -8 19 20 7 32 -33 32 l-26 0 21 -24z"/>
<path d="M9570 1053 c139 -6 120 -23 -25 -23 -95 -1 -125 -3 -112 -11 20 -12
244 -1 252 11 3 5 14 6 25 3 11 -3 26 0 34 6 9 8 28 10 50 5 24 -4 36 -2 36 5
0 8 -51 10 -172 9 -95 -1 -135 -4 -88 -5z"/>
<path d="M7983 1043 c9 -2 23 -2 30 0 6 3 -1 5 -18 5 -16 0 -22 -2 -12 -5z"/>
<path d="M8878 1043 c6 -2 18 -2 25 0 6 3 1 5 -13 5 -14 0 -19 -2 -12 -5z"/>
<path d="M8238 1033 c6 -2 18 -2 25 0 6 3 1 5 -13 5 -14 0 -19 -2 -12 -5z"/>
<path d="M9193 1033 c31 -2 83 -2 115 0 31 2 5 3 -58 3 -63 0 -89 -1 -57 -3z"/>
<path d="M7525 1010 c-4 -6 7 -10 24 -10 21 0 31 -5 31 -15 0 -8 5 -15 10 -15
18 0 11 29 -9 40 -25 13 -48 13 -56 0z"/>
<path d="M9688 1003 c6 -2 18 -2 25 0 6 3 1 5 -13 5 -14 0 -19 -2 -12 -5z"/>
<path d="M8065 990 c3 -5 8 -10 11 -10 2 0 4 5 4 10 0 6 -5 10 -11 10 -5 0 -7
-4 -4 -10z"/>
<path d="M9638 993 c7 -3 16 -2 19 1 4 3 -2 6 -13 5 -11 0 -14 -3 -6 -6z"/>
<path d="M11555 990 c72 -12 105 -11 105 0 0 6 -32 9 -77 9 -76 -2 -76 -2 -28
-9z"/>
<path d="M9383 983 c9 -2 23 -2 30 0 6 3 -1 5 -18 5 -16 0 -22 -2 -12 -5z"/>
<path d="M9500 980 l-45 -7 55 0 c30 0 69 3 85 7 28 7 28 8 -10 7 -22 0 -60
-3 -85 -7z"/>
<path d="M9708 983 c7 -3 16 -2 19 1 4 3 -2 6 -13 5 -11 0 -14 -3 -6 -6z"/>
<path d="M7992 960 c-19 -18 -22 -18 -30 -4 -8 15 -11 14 -23 -4 -8 -11 -23
-22 -34 -25 -29 -7 46 -8 83 -1 18 4 32 14 35 25 7 27 -7 31 -31 9z"/>
<path d="M8828 975 c-3 -3 -25 -9 -49 -14 l-44 -9 53 -1 c28 -1 52 3 52 8 0 5
12 12 28 14 26 4 26 4 -4 6 -17 0 -33 -1 -36 -4z"/>
<path d="M9210 973 c0 -5 27 -8 60 -8 33 0 60 3 60 8 0 4 -27 7 -60 7 -33 0
-60 -3 -60 -7z"/>
<path d="M11528 973 c12 -2 32 -2 45 0 12 2 2 4 -23 4 -25 0 -35 -2 -22 -4z"/>
<path d="M7456 955 c-4 -12 2 -15 28 -15 21 0 36 6 40 15 4 12 -2 15 -28 15
-21 0 -36 -6 -40 -15z"/>
<path d="M7546 955 c4 -8 10 -15 15 -15 5 0 9 7 9 15 0 8 -7 15 -15 15 -9 0
-12 -6 -9 -15z"/>
<path d="M11600 960 c0 -5 5 -10 10 -10 6 0 10 5 10 10 0 6 -4 10 -10 10 -5 0
-10 -4 -10 -10z"/>
<path d="M7624 943 c1 -12 -9 -19 -29 -23 -24 -4 -26 -7 -12 -12 9 -4 17 -12
17 -17 0 -6 -7 -8 -15 -5 -9 4 -46 3 -83 -1 l-67 -7 45 -14 c55 -17 63 -17 54
-2 -5 8 4 10 32 6 48 -7 96 4 75 16 -10 7 -7 12 15 21 28 12 28 12 7 19 -13 4
-23 14 -23 22 0 8 -4 14 -9 14 -5 0 -8 -8 -7 -17z"/>
<path d="M8858 953 c7 -3 16 -2 19 1 4 3 -2 6 -13 5 -11 0 -14 -3 -6 -6z"/>
<path d="M11508 953 c6 -2 18 -2 25 0 6 3 1 5 -13 5 -14 0 -19 -2 -12 -5z"/>
<path d="M8558 943 c7 -3 16 -2 19 1 4 3 -2 6 -13 5 -11 0 -14 -3 -6 -6z"/>
<path d="M8620 941 c0 -10 -138 -20 -318 -23 -67 -1 -127 -5 -133 -9 -17 -10
81 -18 110 -9 14 5 130 12 256 17 133 4 209 10 180 13 -38 4 -44 7 -25 12 17
3 10 6 -22 7 -27 0 -48 -3 -48 -8z"/>
<path d="M8858 933 c12 -2 30 -2 40 0 9 3 -1 5 -23 4 -22 0 -30 -2 -17 -4z"/>
<path d="M7874 885 c17 -17 46 -20 46 -5 0 6 7 10 16 10 9 0 12 -5 8 -12 -5
-8 -2 -9 12 -2 10 5 65 9 121 9 56 0 95 3 85 7 -9 4 -81 7 -160 7 -128 1 -142
-1 -128 -14z"/>
<path d="M11095 841 c-53 -5 -56 -7 -31 -14 24 -7 193 1 184 8 -9 7 -101 11
-153 6z"/>
<path d="M8188 783 c7 -3 16 -2 19 1 4 3 -2 6 -13 5 -11 0 -14 -3 -6 -6z"/>
<path d="M8165 760 c183 -9 198 -12 115 -20 l-65 -7 73 -1 c39 -1 72 -5 72 -9
0 -5 31 -7 70 -5 46 2 70 0 70 -7 0 -7 28 -10 78 -9 l77 1 -65 7 -65 7 55 3
c47 2 39 5 -55 14 -60 6 -117 16 -125 21 -8 6 -96 11 -200 11 l-185 1 150 -7z"/>
<path d="M8935 760 c-4 -6 3 -10 14 -10 25 0 27 6 6 13 -8 4 -17 2 -20 -3z"/>
<path d="M8663 753 c9 -2 23 -2 30 0 6 3 -1 5 -18 5 -16 0 -22 -2 -12 -5z"/>
<path d="M8728 743 c7 -3 16 -2 19 1 4 3 -2 6 -13 5 -11 0 -14 -3 -6 -6z"/>
<path d="M10108 723 c17 -2 47 -2 65 0 17 2 3 4 -33 4 -36 0 -50 -2 -32 -4z"/>
<path d="M10638 723 c6 -2 18 -2 25 0 6 3 1 5 -13 5 -14 0 -19 -2 -12 -5z"/>
<path d="M9140 700 c0 -5 14 -10 30 -10 17 0 30 5 30 10 0 6 -13 10 -30 10
-16 0 -30 -4 -30 -10z"/>
<path d="M9268 693 c7 -3 16 -2 19 1 4 3 -2 6 -13 5 -11 0 -14 -3 -6 -6z"/>
<path d="M9393 689 c14 -8 22 -8 30 0 8 8 3 11 -18 11 -26 -1 -28 -2 -12 -11z"/>
<path d="M9648 693 c7 -3 16 -2 19 1 4 3 -2 6 -13 5 -11 0 -14 -3 -6 -6z"/>
<path d="M8073 643 c9 -2 23 -2 30 0 6 3 -1 5 -18 5 -16 0 -22 -2 -12 -5z"/>
</g>
</svg>
